
<svg class="animated" id="freepik_stories-refer-a-friend" xmlns="http://www.w3.org/2000/svg" viewBox="0 0 500 500" version="1.1" xmlns:xlink="http://www.w3.org/1999/xlink" xmlns:svgjs="http://svgjs.com/svgjs"><g id="freepik--Floor--inject-55" class="animable animator-hidden" style="transform-origin: 249.998px 361.29px;"><path id="freepik--floor--inject-55" d="M87.53,455.09c-89.74-51.8-89.74-135.8,0-187.6s235.21-51.81,324.94,0,89.74,135.8,0,187.6S177.26,506.9,87.53,455.09Z" style="fill: rgb(250, 250, 250); transform-origin: 249.998px 361.29px;" class="animable"></path></g><g id="freepik--Shadows--inject-55" class="animable" style="transform-origin: 222.986px 421.51px;"><ellipse id="freepik--Shadow--inject-55" cx="147.31" cy="442.54" rx="32.07" ry="18.52" style="fill: rgb(224, 224, 224); transform-origin: 147.31px 442.54px;" class="animable"></ellipse><path id="freepik--shadow--inject-55" d="M188.08,472.45a5.8,5.8,0,0,1-5.26,0l-29.63-17.13c-1.45-.84-1.45-2.2,0-3l141.56-81.75a5.8,5.8,0,0,1,5.26,0l29.63,17.12c1.45.84,1.46,2.21,0,3.06Z" style="fill: rgb(224, 224, 224); transform-origin: 241.417px 421.51px;" class="animable"></path></g><g id="freepik--Icons--inject-55" class="animable" style="transform-origin: 255.042px 226.258px;"><path id="freepik--conection-icon--inject-55" d="M462.92,197.2c-1.59-2.21-3.52-3.43-5.24-3.54L449,166.48a3.87,3.87,0,0,0,1.39-1.27c1.92-2.82,1.23-8.24-1.55-12.1s-6.61-4.72-8.53-1.9-1.23,8.24,1.55,12.11c1.59,2.21,3.52,3.43,5.24,3.54l8.69,27.19a3.76,3.76,0,0,0-1.39,1.26,6.07,6.07,0,0,0-.85,2l-19.28-11.68a14.33,14.33,0,0,0-2.62-7.38c-2.79-3.86-6.6-4.71-8.53-1.89s-1.23,8.24,1.55,12.11,6.6,4.71,8.53,1.89a6.07,6.07,0,0,0,.85-2L453.32,200a14.21,14.21,0,0,0,2.62,7.38c2.78,3.86,6.6,4.71,8.53,1.89S465.7,201.07,462.92,197.2Z" style="fill: rgb(224, 224, 224); transform-origin: 443.795px 180.242px;" class="animable"></path><path id="freepik--conection-icon--inject-55" d="M46.72,387.43c1.3-1.86,2.88-2.88,4.28-3l7.1-22.81A3.23,3.23,0,0,1,57,360.58c-1.57-2.36-1-6.91,1.27-10.16s5.39-3.95,7-1.59,1,6.92-1.27,10.16c-1.3,1.86-2.88,2.88-4.28,3l-7.1,22.81a3.14,3.14,0,0,1,1.13,1.06,5,5,0,0,1,.69,1.68l15.77-9.8a12.17,12.17,0,0,1,2.14-6.19c2.27-3.24,5.4-3.95,7-1.59s1,6.92-1.27,10.16-5.39,4-7,1.59a5.17,5.17,0,0,1-.69-1.68L54.57,389.8A12.22,12.22,0,0,1,52.42,396c-2.27,3.25-5.39,4-7,1.6S44.44,390.67,46.72,387.43Z" style="fill: rgb(224, 224, 224); transform-origin: 62.3863px 373.222px;" class="animable"></path><path id="freepik--Friend--inject-55" d="M332.35,61.23c3.6,2.08,6.52-.12,6.52-4.92S336,45.94,332.35,43.87s-6.51.12-6.51,4.92S328.76,59.16,332.35,61.23Zm11.3,17.46c-.66-4.5-3.39-9-6.55-10.85l-9.49-5.48c-3.16-1.83-5.9-.46-6.56,3.28l-1.16,6.59a4.11,4.11,0,0,0,1.7,3.78l21.53,12.43c1.1.64,1.93-.24,1.69-1.82Zm4.51-13.1c2.58,1.49,4.68-.09,4.68-3.54s-2.1-7.45-4.68-8.94-4.68.09-4.68,3.54S345.57,64.1,348.16,65.59ZM357,82.81l-.68-5.48c-.48-3.21-2.44-6.47-4.71-7.79l-6.82-3.93c-1.94-1.12-3.63-.58-4.38,1.24,3.32,2.82,5.41,7.33,6.42,12.27l8.95,5.15C357,85,357.22,84.68,357,82.81Z" style="fill: rgb(224, 224, 224); transform-origin: 338.471px 65.8703px;" class="animable"></path><path id="freepik--friend--inject-55" d="M437.44,382c3.6-2.08,6.52-7.65,6.52-12.45s-2.92-7-6.52-4.92-6.51,7.65-6.51,12.44S433.85,384.09,437.44,382Zm-15.8,4.36c2.58-1.5,4.68-5.5,4.68-8.95s-2.1-5-4.68-3.53-4.68,5.49-4.68,8.94S419.05,387.86,421.64,386.37ZM449.91,393l-1.17-6.59c-.66-3.74-3.39-5.11-6.55-3.29l-9.49,5.48c-3.17,1.83-5.9,6.35-6.56,10.86L425,407.4c-.23,1.57.59,2.45,1.7,1.82l21.53-12.44A4.1,4.1,0,0,0,449.91,393Zm-20.49-5.38c-.75-1.83-2.44-2.37-4.37-1.25l-6.82,3.94c-2.28,1.31-4.24,4.57-4.72,7.78l-.67,5.49c-.27,1.86-.09,2.21,1.22,1.45L423,399.9C424,395,426.11,390.44,429.42,387.63Z" style="fill: rgb(224, 224, 224); transform-origin: 431.334px 386.636px;" class="animable"></path><path id="freepik--Heart--inject-55" d="M83.82,209.4Zm6.17-18a6.2,6.2,0,0,0-8-3.46,6.72,6.72,0,0,0-3.81,5.62L78,195l-1.09-1a7.39,7.39,0,0,0-4.64-1.87,5.11,5.11,0,0,0-1.89.36,6.2,6.2,0,0,0-3.46,8c2.41,6.06,10.09,7.53,13,8.09l3.88.75,2.31-3.21C87.83,203.79,92.4,197.44,90,191.38Z" style="fill: rgb(224, 224, 224); transform-origin: 78.5899px 198.459px;" class="animable"></path></g><g id="freepik--Plants--inject-55" class="animable" style="transform-origin: 145.585px 386.73px;"><g id="freepik--Plant--inject-55" class="animable" style="transform-origin: 145.585px 386.73px;"><g id="freepik--plant--inject-55" class="animable" style="transform-origin: 145.585px 386.73px;"><g id="freepik--Pot--inject-55" class="animable" style="transform-origin: 147.31px 424.003px;"><path d="M131.49,443.86c-8.46-8.73-13.43-31.41-5.18-38.34h42c8.25,6.93,3.28,29.6-5.17,38.33l-.24.24a4,4,0,0,1-.29.29c-.24.23-.49.46-.76.69a1.56,1.56,0,0,0-.2.16l-.64.49a10.13,10.13,0,0,1-1.1.7c-7,4.07-18.24,4.07-25.2,0h0a12.05,12.05,0,0,1-1.1-.71l-.6-.45-.25-.2c-.26-.22-.5-.44-.74-.67s-.22-.22-.33-.33Z" style="fill: rgb(55, 71, 79); transform-origin: 147.31px 427.496px;" id="el65nc7o7g13p" class="animable"></path><path d="M164.66,402.73c9.58,5.6,9.58,14.67,0,20.26s-25.12,5.6-34.7,0-9.58-14.66,0-20.26S155.08,397.14,164.66,402.73Z" style="fill: rgb(69, 90, 100); transform-origin: 147.31px 412.86px;" id="elmvix4kj6kx9" class="animable"></path><path d="M160.05,405.42c7,4.11,7,10.77,0,14.88s-18.44,4.11-25.48,0-7-10.77,0-14.88S153,401.32,160.05,405.42Z" style="fill: rgb(38, 50, 56); transform-origin: 147.302px 412.862px;" id="elptjqzvv6w8s" class="animable"></path><path d="M134.57,412.49c7-4.11,18.45-4.11,25.48,0a11.85,11.85,0,0,1,4.22,3.91,11.68,11.68,0,0,1-4.22,3.91c-7,4.11-18.44,4.11-25.48,0a11.72,11.72,0,0,1-4.21-3.91A11.79,11.79,0,0,1,134.57,412.49Z" style="fill: rgb(250, 250, 250); transform-origin: 147.315px 416.4px;" id="els9pjl4qe90p" class="animable"></path></g><path d="M144.49,356.49c-3.22,3.48-12.17,4.44-15.87-5-3.47-8.84-7.22-17.21-8.29-20.45a3.34,3.34,0,0,1,2.14-4.32s.25-4.85,8.48-1.56,14,8.28,17.62,16.35S150,355.4,144.49,356.49Z" style="fill: rgb(104, 200, 106); transform-origin: 135.239px 341.487px;" id="elc5hm4ermxc6" class="animable"></path><g id="el9o0r30k99r"><path d="M144.49,356.49c-3.22,3.48-12.17,4.44-15.87-5-3.47-8.84-7.22-17.21-8.29-20.45a3.34,3.34,0,0,1,2.14-4.32s.25-4.85,8.48-1.56,14,8.28,17.62,16.35S150,355.4,144.49,356.49Z" style="fill: rgb(255, 255, 255); opacity: 0.45; transform-origin: 135.239px 341.487px;" class="animable"></path></g><path d="M148.05,368.94a45,45,0,0,0-.72-4.91,67.53,67.53,0,0,0-2.72-9.48,70,70,0,0,0-9.54-17.6,60.53,60.53,0,0,0-7.49-8.5c-.09-.08-.15.11-.09.17A73,73,0,0,1,146,363.22c.4,1.79.79,3.59,1.12,5.4s.52,3.69.83,5.52c0,.19.32.3.33.05A34.13,34.13,0,0,0,148.05,368.94Z" style="fill: rgb(104, 200, 106); transform-origin: 137.882px 351.383px;" id="elitu8qi47ja" class="animable"></path><g id="eley0okkd61ih"><path d="M148.05,368.94a45,45,0,0,0-.72-4.91,67.53,67.53,0,0,0-2.72-9.48,70,70,0,0,0-9.54-17.6,60.53,60.53,0,0,0-7.49-8.5c-.09-.08-.15.11-.09.17A73,73,0,0,1,146,363.22c.4,1.79.79,3.59,1.12,5.4s.52,3.69.83,5.52c0,.19.32.3.33.05A34.13,34.13,0,0,0,148.05,368.94Z" style="opacity: 0.3; transform-origin: 137.882px 351.383px;" class="animable"></path></g><path d="M150.8,354c-7.39,2.29-12.88-3.48-11-12.52s11.4-19.09,15-16.39c2.24-2.24,7.18-1.44,9.5,5.91S164.52,357.25,150.8,354Z" style="fill: rgb(104, 200, 106); transform-origin: 152.27px 339.245px;" id="elxg2rmvbu9xa" class="animable"></path><g id="elr1rm1ehvez"><path d="M150.8,354c-7.39,2.29-12.88-3.48-11-12.52s11.4-19.09,15-16.39c2.24-2.24,7.18-1.44,9.5,5.91S164.52,357.25,150.8,354Z" style="fill: rgb(255, 255, 255); opacity: 0.25; transform-origin: 152.27px 339.245px;" class="animable"></path></g><path d="M155.13,330.63a98.79,98.79,0,0,0-4.91,16.25,158.19,158.19,0,0,0-2.85,17,263.4,263.4,0,0,0-1.48,33.35q0,4.61.12,9.23c.06,3.16,0,6.37.28,9.52.1,1.21,1.82.89,1.85-.22.1-5.54-.2-11.1-.26-16.65s0-10.95.11-16.43a229.33,229.33,0,0,1,3-33.3c.53-3.07,1.11-6.13,1.82-9.16.76-3.19,1.68-6.33,2.52-9.49C155.35,330.63,155.2,330.46,155.13,330.63Z" style="fill: rgb(104, 200, 106); transform-origin: 150.587px 373.655px;" id="elydumdcqd94d" class="animable"></path><g id="elt91fmxl48yr"><path d="M155.13,330.63a98.79,98.79,0,0,0-4.91,16.25,158.19,158.19,0,0,0-2.85,17,263.4,263.4,0,0,0-1.48,33.35q0,4.61.12,9.23c.06,3.16,0,6.37.28,9.52.1,1.21,1.82.89,1.85-.22.1-5.54-.2-11.1-.26-16.65s0-10.95.11-16.43a229.33,229.33,0,0,1,3-33.3c.53-3.07,1.11-6.13,1.82-9.16.76-3.19,1.68-6.33,2.52-9.49C155.35,330.63,155.2,330.46,155.13,330.63Z" style="opacity: 0.3; transform-origin: 150.587px 373.655px;" class="animable"></path></g><path d="M138.77,380.57c-3.23,3.65-10.63,3.33-15.59-3.19s-7.94-31.05-1-29.48c1.47-3.28,20.77,4.58,23.24,20.59C147.27,380.12,138.77,380.57,138.77,380.57Z" style="fill: rgb(104, 200, 106); transform-origin: 131.89px 365.035px;" id="el9z2wyeo52ym" class="animable"></path><g id="elh36eer7jmbc"><path d="M138.77,380.57c-3.23,3.65-10.63,3.33-15.59-3.19s-7.94-31.05-1-29.48c1.47-3.28,20.77,4.58,23.24,20.59C147.27,380.12,138.77,380.57,138.77,380.57Z" style="fill: rgb(255, 255, 255); opacity: 0.25; transform-origin: 131.89px 365.035px;" class="animable"></path></g><path d="M144.54,392.15a34.52,34.52,0,0,0-.95-4.47q-1.22-4.5-2.87-8.87a93.56,93.56,0,0,0-8.62-16.92,83.16,83.16,0,0,0-6.12-8.64c-.06-.08-.12.09-.09.14,1.73,2.52,3.48,5,5,7.63s3,5.54,4.37,8.41a116.33,116.33,0,0,1,6.37,17.07c.47,1.66.86,3.34,1.35,5s1.15,3.4,1.58,5.14c.06.26.39.35.35,0C144.79,395.16,144.74,393.65,144.54,392.15Z" style="fill: rgb(104, 200, 106); transform-origin: 135.398px 375.049px;" id="el7jlb02haqkg" class="animable"></path><g id="elpng2tnhw0k"><path d="M144.54,392.15a34.52,34.52,0,0,0-.95-4.47q-1.22-4.5-2.87-8.87a93.56,93.56,0,0,0-8.62-16.92,83.16,83.16,0,0,0-6.12-8.64c-.06-.08-.12.09-.09.14,1.73,2.52,3.48,5,5,7.63s3,5.54,4.37,8.41a116.33,116.33,0,0,1,6.37,17.07c.47,1.66.86,3.34,1.35,5s1.15,3.4,1.58,5.14c.06.26.39.35.35,0C144.79,395.16,144.74,393.65,144.54,392.15Z" style="opacity: 0.3; transform-origin: 135.398px 375.049px;" class="animable"></path></g><path d="M150.59,376.94c-4.23-1-4.44-6,.84-12.26s18.58-8.94,19.21-6.31c3,0,3,9.26-3.59,17.76S151,382.66,150.59,376.94Z" style="fill: rgb(104, 200, 106); transform-origin: 160.005px 369.621px;" id="eljw7xxj8rfh" class="animable"></path><g id="el7d4kr7j5h8o"><path d="M150.59,376.94c-4.23-1-4.44-6,.84-12.26s18.58-8.94,19.21-6.31c3,0,3,9.26-3.59,17.76S151,382.66,150.59,376.94Z" style="fill: rgb(255, 255, 255); opacity: 0.25; transform-origin: 160.005px 369.621px;" class="animable"></path></g><path d="M158.86,367.89a34.63,34.63,0,0,0-7.31,6.94,34.19,34.19,0,0,0-4.91,8.84c-.14.36.48.89.63.5A39,39,0,0,1,158.88,368S158.91,367.85,158.86,367.89Z" style="fill: rgb(104, 200, 106); transform-origin: 152.754px 376.095px;" id="elnqqn0f6ibh" class="animable"></path><g id="el4zyelfw220b"><path d="M158.86,367.89a34.63,34.63,0,0,0-7.31,6.94,34.19,34.19,0,0,0-4.91,8.84c-.14.36.48.89.63.5A39,39,0,0,1,158.88,368S158.91,367.85,158.86,367.89Z" style="opacity: 0.3; transform-origin: 152.754px 376.095px;" class="animable"></path></g><path d="M155.41,407.84c-5.85,2.37-3.34,9.33,2.37,14.63a26.1,26.1,0,0,0,17.8,6.4c3.93-.27,4.93-.81,4.93-.81s.63-6,0-9.68a18.73,18.73,0,0,0-13.78-14.86C157.6,401.06,155.41,404.36,155.41,407.84Z" style="fill: rgb(104, 200, 106); transform-origin: 166.431px 415.773px;" id="elyhg5yk8o05a" class="animable"></path><g id="eldq950aa9dl4"><path d="M155.41,407.84c-5.85,2.37-3.34,9.33,2.37,14.63a26.1,26.1,0,0,0,17.8,6.4c3.93-.27,4.93-.81,4.93-.81s.63-6,0-9.68a18.73,18.73,0,0,0-13.78-14.86C157.6,401.06,155.41,404.36,155.41,407.84Z" style="fill: rgb(255, 255, 255); opacity: 0.45; transform-origin: 166.431px 415.773px;" class="animable"></path></g><path d="M171.61,418.13a47.59,47.59,0,0,0-9-8.29c-3.33-2.19-7.77-4.06-11.77-2.7-1.55.53-3.95,2.08-3.66,4,0,.19.37.67.59.4a15.94,15.94,0,0,1,2.11-2.45,6.28,6.28,0,0,1,3.14-1.2,14.56,14.56,0,0,1,8.2,1.87c4,2.1,7.15,5.35,10.3,8.47C171.59,418.25,171.63,418.16,171.61,418.13Z" style="fill: rgb(104, 200, 106); transform-origin: 159.386px 412.456px;" id="elg6zccb7c83" class="animable"></path><g id="ellcc77g5x4e"><path d="M171.61,418.13a47.59,47.59,0,0,0-9-8.29c-3.33-2.19-7.77-4.06-11.77-2.7-1.55.53-3.95,2.08-3.66,4,0,.19.37.67.59.4a15.94,15.94,0,0,1,2.11-2.45,6.28,6.28,0,0,1,3.14-1.2,14.56,14.56,0,0,1,8.2,1.87c4,2.1,7.15,5.35,10.3,8.47C171.59,418.25,171.63,418.16,171.61,418.13Z" style="opacity: 0.3; transform-origin: 159.386px 412.456px;" class="animable"></path></g><path d="M133.14,377.89c.55-2.67-3.29-9.05-15.29-10.27s-21,3.87-22.79,6.19-2.72,4.77-.55,5.38,9.67,1.34,14.59,3.6,14.92,9,21.75,7S136.53,380.53,133.14,377.89Z" style="fill: rgb(104, 200, 106); transform-origin: 114.545px 378.795px;" id="elkjvusxe83p" class="animable"></path><g id="elby8mk1oq04"><path d="M133.14,377.89c.55-2.67-3.29-9.05-15.29-10.27s-21,3.87-22.79,6.19-2.72,4.77-.55,5.38,9.67,1.34,14.59,3.6,14.92,9,21.75,7S136.53,380.53,133.14,377.89Z" style="fill: rgb(255, 255, 255); opacity: 0.45; transform-origin: 114.545px 378.795px;" class="animable"></path></g><path d="M142.26,387.17c-5.06-10.45-18.1-13.63-28.76-13.58a42.37,42.37,0,0,0-10.39,1.35s0,.13,0,.12a55.24,55.24,0,0,1,17.36-.17c5.65.92,11.21,2.67,15.86,6.12a21.44,21.44,0,0,1,5.67,6.36C142.16,387.62,142.36,387.39,142.26,387.17Z" style="fill: rgb(104, 200, 106); transform-origin: 122.698px 380.534px;" id="elc1n2s3nwsre" class="animable"></path><g id="el7x7kjlpi43t"><path d="M142.26,387.17c-5.06-10.45-18.1-13.63-28.76-13.58a42.37,42.37,0,0,0-10.39,1.35s0,.13,0,.12a55.24,55.24,0,0,1,17.36-.17c5.65.92,11.21,2.67,15.86,6.12a21.44,21.44,0,0,1,5.67,6.36C142.16,387.62,142.36,387.39,142.26,387.17Z" style="opacity: 0.3; transform-origin: 122.698px 380.534px;" class="animable"></path></g><path d="M161.08,363.89c-.15,4.2,5.75,6.63,11.46,3s11.7-7.15,17-8.52,7.8-5.69,6.13-7.78-4.33-7.36-18.25-5.64-18.85,8-20.76,12.42S159,365.1,161.08,363.89Z" style="fill: rgb(104, 200, 106); transform-origin: 176.181px 356.635px;" id="elf30ny88eh7q" class="animable"></path><g id="eltcasxd1yr5f"><path d="M161.08,363.89c-.15,4.2,5.75,6.63,11.46,3s11.7-7.15,17-8.52,7.8-5.69,6.13-7.78-4.33-7.36-18.25-5.64-18.85,8-20.76,12.42S159,365.1,161.08,363.89Z" style="fill: rgb(255, 255, 255); opacity: 0.45; transform-origin: 176.181px 356.635px;" class="animable"></path></g><path d="M183.73,350.57a15.32,15.32,0,0,0-6,.63,29.92,29.92,0,0,0-5.11,1.83,28.08,28.08,0,0,0-8.7,6.3,24.75,24.75,0,0,0-2,2.37,10.27,10.27,0,0,0-1.48,2.43c-.1.28.31.73.55.45.69-.8,1.21-1.77,1.85-2.61a30.17,30.17,0,0,1,2.24-2.56,28.47,28.47,0,0,1,5.37-4.22,32.65,32.65,0,0,1,5.94-2.9,35.18,35.18,0,0,1,3.46-1,11.6,11.6,0,0,1,3.78-.53C183.76,350.73,183.8,350.58,183.73,350.57Z" style="fill: rgb(104, 200, 106); transform-origin: 172.094px 357.586px;" id="elyc06ysjm23a" class="animable"></path><g id="el2op9smz1q8f"><path d="M183.73,350.57a15.32,15.32,0,0,0-6,.63,29.92,29.92,0,0,0-5.11,1.83,28.08,28.08,0,0,0-8.7,6.3,24.75,24.75,0,0,0-2,2.37,10.27,10.27,0,0,0-1.48,2.43c-.1.28.31.73.55.45.69-.8,1.21-1.77,1.85-2.61a30.17,30.17,0,0,1,2.24-2.56,28.47,28.47,0,0,1,5.37-4.22,32.65,32.65,0,0,1,5.94-2.9,35.18,35.18,0,0,1,3.46-1,11.6,11.6,0,0,1,3.78-.53C183.76,350.73,183.8,350.58,183.73,350.57Z" style="opacity: 0.3; transform-origin: 172.094px 357.586px;" class="animable"></path></g><path d="M151.09,386.53c-2-1.95-7.24-1.5-9.75,4.27s2.76,12.06,3.35,13.84c2.41-1.4,4.29-.57,8.55-1.4a10.62,10.62,0,0,0,8.16-10.6C161.12,387.37,158.89,383.88,151.09,386.53Z" style="fill: rgb(104, 200, 106); transform-origin: 151.035px 395.064px;" id="elp5epbti2iya" class="animable"></path><g id="el28a12xoexb6"><path d="M151.09,386.53c-2-1.95-7.24-1.5-9.75,4.27s2.76,12.06,3.35,13.84c2.41-1.4,4.29-.57,8.55-1.4a10.62,10.62,0,0,0,8.16-10.6C161.12,387.37,158.89,383.88,151.09,386.53Z" style="fill: rgb(255, 255, 255); opacity: 0.45; transform-origin: 151.035px 395.064px;" class="animable"></path></g><path d="M151,386a7.94,7.94,0,0,0-2.58,2.67,14.81,14.81,0,0,0-1.68,3.23,13.75,13.75,0,0,0-.74,7.34c0,.1.1,0,.1-.05a15,15,0,0,1,1.23-7.25,14.1,14.1,0,0,1,1.76-2.91,12.69,12.69,0,0,1,1.17-1.36,7.41,7.41,0,0,0,1.12-1.12C151.54,386.28,151.32,385.81,151,386Z" style="fill: rgb(104, 200, 106); transform-origin: 148.616px 392.619px;" id="elogqbei1ina" class="animable"></path><g id="elvvpfa9oyso"><path d="M151,386a7.94,7.94,0,0,0-2.58,2.67,14.81,14.81,0,0,0-1.68,3.23,13.75,13.75,0,0,0-.74,7.34c0,.1.1,0,.1-.05a15,15,0,0,1,1.23-7.25,14.1,14.1,0,0,1,1.76-2.91,12.69,12.69,0,0,1,1.17-1.36,7.41,7.41,0,0,0,1.12-1.12C151.54,386.28,151.32,385.81,151,386Z" style="opacity: 0.3; transform-origin: 148.616px 392.619px;" class="animable"></path></g><path d="M141.91,398.21c-.17-4.29-4.82-7.69-11.44-9.66a18,18,0,0,0-18.59,4.95c-4.83,5.24-7.33,9.71-5.36,11s10.72,4.46,16.45,6.25,13.22,2.33,18.94-1.07S147.28,400.35,141.91,398.21Z" style="fill: rgb(104, 200, 106); transform-origin: 125.957px 399.947px;" id="ela1z5pv1tu4d" class="animable"></path><g id="el9rga3ph4qk"><path d="M141.91,398.21c-.17-4.29-4.82-7.69-11.44-9.66a18,18,0,0,0-18.59,4.95c-4.83,5.24-7.33,9.71-5.36,11s10.72,4.46,16.45,6.25,13.22,2.33,18.94-1.07S147.28,400.35,141.91,398.21Z" style="fill: rgb(255, 255, 255); opacity: 0.25; transform-origin: 125.957px 399.947px;" class="animable"></path></g><path d="M142.28,397.73a17.88,17.88,0,0,0-7.18-1.92,32.7,32.7,0,0,0-7.2.08,45.21,45.21,0,0,0-7.46,1.58c-1.27.37-2.53.79-3.78,1.25a26.74,26.74,0,0,0-3.46,1.42s-.07.17,0,.15c1.21-.25,2.39-.72,3.58-1.09s2.56-.77,3.85-1.1a49.6,49.6,0,0,1,7.35-1.39,32.65,32.65,0,0,1,7.46,0,44.86,44.86,0,0,1,6.77,1.65C142.68,398.52,142.54,397.88,142.28,397.73Z" style="fill: rgb(104, 200, 106); transform-origin: 127.844px 397.97px;" id="elty0ebrbvat" class="animable"></path><g id="eld4zyct3rjti"><path d="M142.28,397.73a17.88,17.88,0,0,0-7.18-1.92,32.7,32.7,0,0,0-7.2.08,45.21,45.21,0,0,0-7.46,1.58c-1.27.37-2.53.79-3.78,1.25a26.74,26.74,0,0,0-3.46,1.42s-.07.17,0,.15c1.21-.25,2.39-.72,3.58-1.09s2.56-.77,3.85-1.1a49.6,49.6,0,0,1,7.35-1.39,32.65,32.65,0,0,1,7.46,0,44.86,44.86,0,0,1,6.77,1.65C142.68,398.52,142.54,397.88,142.28,397.73Z" style="opacity: 0.3; transform-origin: 127.844px 397.97px;" class="animable"></path></g><path d="M155.56,391.82c-4.72-3.76-3.15-12.76,13.4-13.25s28.36,3.83,27.84,9.16c2.66,2.66,1.31,10.12-12.08,12.45S152.15,401.35,155.56,391.82Z" style="fill: rgb(104, 200, 106); transform-origin: 175.582px 389.871px;" id="elm10adn2dpxc" class="animable"></path><g id="elnzbdtfn3ej"><path d="M155.56,391.82c-4.72-3.76-3.15-12.76,13.4-13.25s28.36,3.83,27.84,9.16c2.66,2.66,1.31,10.12-12.08,12.45S152.15,401.35,155.56,391.82Z" style="fill: rgb(255, 255, 255); opacity: 0.25; transform-origin: 175.582px 389.871px;" class="animable"></path></g><path d="M189,387.79a70.93,70.93,0,0,0-14.78-.86,56.81,56.81,0,0,0-13.64,1.56,20.47,20.47,0,0,0-3.33,1.24,15.53,15.53,0,0,0-1.45.78c-.38.23-.8.42-.93.86a.45.45,0,0,0,.49.53,18,18,0,0,0,2.89-1.43,22.38,22.38,0,0,1,2.87-1.05,36.09,36.09,0,0,1,5.75-1.13,101.82,101.82,0,0,1,14-.77c2.72,0,5.43.24,8.14.46C189.07,388,189.1,387.8,189,387.79Z" style="fill: rgb(104, 200, 106); transform-origin: 171.964px 389.378px;" id="el1woc15svs8f" class="animable"></path><g id="el55l86n5yf1m"><path d="M189,387.79a70.93,70.93,0,0,0-14.78-.86,56.81,56.81,0,0,0-13.64,1.56,20.47,20.47,0,0,0-3.33,1.24,15.53,15.53,0,0,0-1.45.78c-.38.23-.8.42-.93.86a.45.45,0,0,0,.49.53,18,18,0,0,0,2.89-1.43,22.38,22.38,0,0,1,2.87-1.05,36.09,36.09,0,0,1,5.75-1.13,101.82,101.82,0,0,1,14-.77c2.72,0,5.43.24,8.14.46C189.07,388,189.1,387.8,189,387.79Z" style="opacity: 0.3; transform-origin: 171.964px 389.378px;" class="animable"></path></g></g></g></g><g id="freepik--Device--inject-55" class="animable" style="transform-origin: 233.62px 261.867px;"><g id="freepik--Mobile--inject-55" class="animable" style="transform-origin: 233.62px 261.867px;"><path d="M319.27,377.92,298.44,73.06c-.49-7.23-4.5-9.14-8.06-10.91s-9.31-2.76-14,0l-120.55,69.6c-4.7,2.72-8.23,9.16-7.88,14.39L168.76,451c.36,5.23,4.11,8.24,7.67,10s9.7,3.66,14.41.94l120.55-69.6C316.1,389.59,319.76,385.2,319.27,377.92Z" style="fill: rgb(55, 71, 79); transform-origin: 233.62px 261.867px;" id="elmp0ircoh2rn" class="animable"></path><path d="M311.49,380.74l-124,71.57L166.66,146.24,150,138a15.49,15.49,0,0,0-2,8.14L168.76,451c.36,5.23,4.11,8.24,7.67,10s9.7,3.66,14.41.94l120.55-69.6a15.14,15.14,0,0,0,7.12-8.08L318,384Z" style="fill: rgb(38, 50, 56); transform-origin: 233.251px 300.652px;" id="elj11ac6dcw3" class="animable"></path><path d="M289.2,70.82,168.3,140.63a11.89,11.89,0,0,0-5.53,10.09L183.44,453.3c.38,5.61,4.84,7.82,9.89,4.9L311,390.26c3.72-2.16,6.54-7.3,6.26-11.45L296.49,74.44C296.21,70.29,292.92,68.67,289.2,70.82Z" style="fill: rgb(69, 90, 100); transform-origin: 240.025px 264.68px;" id="elnmwji1xxq2" class="animable"></path><path d="M291.28,87.89l19.43,284.4c.27,3.95-2.41,8.84-5.95,10.88l-109,62.93c-3.56,2.07-6.66.53-6.93-3.43L169.28,156.35a12.82,12.82,0,0,1,4.05-9.44c.21-.18.4-.37.6-.54a10.71,10.71,0,0,1,1.3-.89l30.66-17.7,2-1.15c1.1-.64,2.06-.17,2.15,1.06s1.1,1.67,2.28,1l35.73-20.63a4.11,4.11,0,0,0,2-3.45,4.11,4.11,0,0,1,1.64-3.26l.21-.12,30-17.31.64-.37C287,81,290.94,82.9,291.28,87.89Z" id="ele3jpjzj9fnn" class="animable" style="transform-origin: 240.004px 264.72px;"></path><path d="M281.87,83.91l-30,17.31-.21.12A4.11,4.11,0,0,0,250,104.6a4.11,4.11,0,0,1-2,3.45l-35.73,20.63c-1.18.68-2.2.23-2.28-1s-1-1.7-2.15-1.06l-2,1.15-30.66,17.7a10.71,10.71,0,0,0-1.3.89c-.2.17-.39.36-.6.54a12.82,12.82,0,0,0-4.05,9.44l19.56,286.32a6.77,6.77,0,0,0,.25,1.42,7.65,7.65,0,0,0,1.49-.66l109-62.93a12.81,12.81,0,0,0,5.95-10.88L286.08,85.21a7.4,7.4,0,0,0-.68-2.73,8.31,8.31,0,0,0-2.89,1.06Z" style="fill: rgb(255, 255, 255); transform-origin: 237.355px 263.28px;" id="ellgtbbzsw5o" class="animable"></path><path d="M217.24,118.07l16.38-9.45c1-.56,1.82-.2,1.89.82a3.44,3.44,0,0,1-1.64,2.87l-16.38,9.45c-1,.57-1.83.2-1.9-.82A3.45,3.45,0,0,1,217.24,118.07Z" style="fill: rgb(38, 50, 56); transform-origin: 225.55px 115.192px;" id="el31imyee46mh" class="animable"></path><path d="M242,103c1.1-.64,2.06-.16,2.14,1.06a4,4,0,0,1-1.84,3.37c-1.1.63-2.06.16-2.14-1.06A4,4,0,0,1,242,103Z" style="fill: rgb(38, 50, 56); transform-origin: 242.15px 105.213px;" id="elqfwlv6ale9" class="animable"></path><path d="M162.86,194.58a7.25,7.25,0,0,0-3.64-5.42A2.31,2.31,0,0,0,157,189c-.4.24-1.95,1.1-2.37,1.35a2.23,2.23,0,0,0-.86,2.17l1.56,22.89a7.22,7.22,0,0,0,3.65,5.41,2.37,2.37,0,0,0,2.17.17c.44-.23,2-1.15,2.44-1.39a2.22,2.22,0,0,0,.87-2.18Z" style="fill: rgb(69, 90, 100); transform-origin: 159.116px 204.983px;" id="el6vb9tomfcuh" class="animable"></path><path d="M160.52,195.93l1.56,22.88c.14,2.06-1.26,3-3.13,2.05a7.22,7.22,0,0,1-3.65-5.41l-1.56-22.89c-.14-2.06,1.26-3,3.14-2.05A7.26,7.26,0,0,1,160.52,195.93Z" style="fill: rgb(55, 71, 79); transform-origin: 157.91px 205.685px;" id="el6yyadee719v" class="animable"></path><path d="M165.6,234.63a7.26,7.26,0,0,0-3.65-5.41,2.34,2.34,0,0,0-2.25-.13c-.4.24-1.95,1.11-2.36,1.36a2.2,2.2,0,0,0-.87,2.17L158,255.51a7.28,7.28,0,0,0,3.65,5.41,2.37,2.37,0,0,0,2.17.17c.44-.23,2-1.15,2.44-1.4a2.19,2.19,0,0,0,.87-2.17Z" style="fill: rgb(69, 90, 100); transform-origin: 161.8px 245.069px;" id="elxcuwba56f2" class="animable"></path><path d="M163.25,236l1.56,22.89c.14,2.06-1.26,3-3.13,2.05a7.26,7.26,0,0,1-3.65-5.41l-1.56-22.89c-.14-2.06,1.27-3,3.14-2.05A7.25,7.25,0,0,1,163.25,236Z" style="fill: rgb(55, 71, 79); transform-origin: 160.64px 245.765px;" id="elbr93zqv8x9t" class="animable"></path></g></g><g id="freepik--Arrows--inject-55" class="animable" style="transform-origin: 281.67px 211.446px;"><g id="freepik--speech-bubble--inject-55" class="animable" style="transform-origin: 191.415px 59.775px;"><g id="freepik--speech-bubble--inject-55" class="animable" style="transform-origin: 191.415px 59.775px;"><path d="M194.91,86.76l-3-5.65,2.42-7V69.87l-7.39,4.27v4.27l3.18,5.5a.45.45,0,0,0,.21.2h0Z" style="fill: rgb(104, 200, 106); transform-origin: 190.925px 78.315px;" id="elxb347bhxs4h" class="animable"></path><g id="elajn34hah98"><path d="M194.91,86.76l-3-5.65,2.42-7V69.87l-7.39,4.27v4.27l3.18,5.5a.45.45,0,0,0,.21.2h0Z" style="opacity: 0.15; transform-origin: 190.925px 78.315px;" class="animable"></path></g><path d="M214.26,35a4.92,4.92,0,0,0-2.21-3.84l-1.81-1a4.87,4.87,0,0,0-4.43,0L170.73,50.37a4.88,4.88,0,0,0-2.21,3.84V84.66a4.92,4.92,0,0,0,2.21,3.84l1.81,1a4.94,4.94,0,0,0,4.43,0l14.6-8.44,3.17,5.49a.48.48,0,0,0,.86-.08L199,76.83l13.1-7.58a4.9,4.9,0,0,0,2.21-3.84Z" style="fill: rgb(104, 200, 106); transform-origin: 191.415px 59.8258px;" id="eln6ftxcvg6bf" class="animable"></path><g id="elp1rcll814zn"><path d="M168.52,84.66a4.92,4.92,0,0,0,2.21,3.84l1.81,1a5,5,0,0,0,4.05.18c-1,.39-1.83-.2-1.83-1.46V57.81a4.55,4.55,0,0,1,.64-2.19L169.17,52a4.57,4.57,0,0,0-.65,2.19Z" style="opacity: 0.15; transform-origin: 172.555px 71.0119px;" class="animable"></path></g><g id="elf555y6ql06"><path d="M214.19,34.33c-.26-.94-1.12-1.24-2.14-.65L177,54a4.36,4.36,0,0,0-1.56,1.65L169.17,52a4.5,4.5,0,0,1,1.57-1.66l35.07-20.29a4.94,4.94,0,0,1,4.43,0l1.81,1.05A4.87,4.87,0,0,1,214.19,34.33Z" style="fill: rgb(255, 255, 255); opacity: 0.45; transform-origin: 191.68px 42.5878px;" class="animable"></path></g></g><path d="M196.83,54.75l-6.15,3.55V53.45L179.75,69.76l10.93,3.69V68.6l6.15-3.55c5.94-3.43,9.19-4.39,10.95,0C209,53.6,204.18,50.5,196.83,54.75Z" style="fill: rgb(255, 255, 255); transform-origin: 193.859px 63.1902px;" id="elwdip4eu2hps" class="animable"></path></g><g id="freepik--speech-bubble--inject-55" class="animable" style="transform-origin: 371.945px 363.153px;"><g id="freepik--speech-bubble--inject-55" class="animable" style="transform-origin: 371.945px 363.153px;"><path d="M375.46,390.14l-3-5.65,2.41-7v-4.27l-7.39,4.27v4.27l3.18,5.5a.45.45,0,0,0,.21.2h0Z" style="fill: rgb(104, 200, 106); transform-origin: 371.47px 381.68px;" id="elc4s4fdnkkl5" class="animable"></path><g id="el5nlabb4uhdf"><path d="M375.46,390.14l-3-5.65,2.41-7v-4.27l-7.39,4.27v4.27l3.18,5.5a.45.45,0,0,0,.21.2h0Z" style="opacity: 0.15; transform-origin: 371.47px 381.68px;" class="animable"></path></g><path d="M394.82,338.34a4.9,4.9,0,0,0-2.22-3.84l-1.8-1a4.89,4.89,0,0,0-4.44,0l-35.07,20.29a4.87,4.87,0,0,0-2.22,3.84V388a4.9,4.9,0,0,0,2.22,3.84l1.8,1a5,5,0,0,0,4.44,0l14.59-8.44,3.17,5.49a.48.48,0,0,0,.86-.08l3.35-9.68,13.1-7.58a4.88,4.88,0,0,0,2.22-3.84Z" style="fill: rgb(104, 200, 106); transform-origin: 371.945px 363.163px;" id="elh5blk9yl29m" class="animable"></path><g id="el9e4wof59qy"><path d="M349.07,388a4.9,4.9,0,0,0,2.22,3.84l1.8,1a5,5,0,0,0,4.06.18c-1,.39-1.84-.2-1.84-1.46V361.19A4.57,4.57,0,0,1,356,359l-6.24-3.6a4.57,4.57,0,0,0-.65,2.19Z" style="opacity: 0.15; transform-origin: 353.11px 374.383px;" class="animable"></path></g><g id="elu5asecuu4c"><path d="M394.75,337.71c-.26-.94-1.12-1.24-2.15-.65l-35.08,20.29A4.44,4.44,0,0,0,356,359l-6.23-3.59a4.4,4.4,0,0,1,1.56-1.66l35.07-20.29a5,5,0,0,1,4.44,0l1.8,1.05A4.88,4.88,0,0,1,394.75,337.71Z" style="fill: rgb(255, 255, 255); opacity: 0.45; transform-origin: 372.26px 345.97px;" class="animable"></path></g></g><path d="M361.53,382.7c1.77-6.4,5-9.2,11-12.63l6.15-3.55v4.85l10.93-16.31-10.93-3.69v4.85l-6.15,3.55C365.13,364,360.35,372.64,361.53,382.7Z" style="fill: rgb(255, 255, 255); transform-origin: 375.481px 367.035px;" id="el6vpzfho1qft" class="animable"></path></g></g><g id="freepik--speech-bubble--inject-55" class="animable" style="transform-origin: 424.875px 86.42px;"><g id="freepik--Present--inject-55" class="animable" style="transform-origin: 424.875px 86.42px;"><g id="freepik--speech-bubble--inject-55" class="animable" style="transform-origin: 424.875px 86.42px;"><path d="M400.75,121.37a.85.85,0,0,1,.33,1,23.42,23.42,0,0,1-12.85,11.91c7.4,2.29,18.94-.62,26.09-6.88a.82.82,0,0,1,.72-.18,45.12,45.12,0,1,0-14.29-5.86Z" style="fill: rgb(255, 255, 255); transform-origin: 424.762px 86.5486px;" id="el7i9ufjuv4yk" class="animable"></path><path d="M399.3,122.36a21.42,21.42,0,0,1-13.7,11,.81.81,0,0,0-.63.68.84.84,0,0,0,.44.85c7.69,4,21.18,1.2,29.66-6a46.35,46.35,0,0,0,19.48,0,46.89,46.89,0,1,0-35.25-6.58ZM380.64,92.6A45.27,45.27,0,1,1,415,127.23a.82.82,0,0,0-.72.18c-7.15,6.26-18.69,9.17-26.09,6.88a23.42,23.42,0,0,0,12.85-11.91.85.85,0,0,0-.33-1A44.79,44.79,0,0,1,380.64,92.6Z" style="fill: rgb(69, 90, 100); transform-origin: 424.875px 86.42px;" id="ela0nx1my8nvb" class="animable"></path></g><g id="freepik--Gift--inject-55" class="animable" style="transform-origin: 424.8px 84.905px;"><g id="freepik--shadow--inject-55"><polygon points="455.8 100.87 424.8 82.97 393.8 100.87 424.8 118.76 455.8 100.87" style="opacity: 0.1; transform-origin: 424.8px 100.865px;" class="animable"></polygon></g><g id="freepik--gift--inject-55" class="animable" style="transform-origin: 424.8px 83.715px;"><polygon points="424.8 116.38 397.39 100.54 397.39 76.28 396.81 75.95 396.81 67.87 424.8 84.03 424.8 116.38" style="fill: rgb(104, 200, 106); transform-origin: 410.805px 92.125px;" id="el0nu04png3sch" class="animable"></polygon><g id="elfwtwk8ycoyk"><polygon points="424.8 116.38 397.39 100.54 397.39 76.28 396.81 75.95 396.81 67.87 424.8 84.03 424.8 116.38" style="opacity: 0.1; transform-origin: 410.805px 92.125px;" class="animable"></polygon></g><g id="elw69az0szs4k"><polygon points="424.8 116.38 397.39 100.54 397.39 76.28 396.81 75.95 396.81 67.87 424.8 84.03 424.8 116.38" style="fill: rgb(255, 255, 255); opacity: 0.3; transform-origin: 410.805px 92.125px;" class="animable"></polygon></g><g id="el4qhx5ud0hki"><polygon points="424.8 92.11 414.3 86.05 397.39 76.28 397.39 77.44 424.8 93.27 424.8 92.11" style="opacity: 0.15; transform-origin: 411.095px 84.775px;" class="animable"></polygon></g><polygon points="424.8 116.38 452.06 100.65 452.06 76.37 452.79 75.95 452.79 67.87 424.8 84.03 424.8 116.38" style="fill: rgb(104, 200, 106); transform-origin: 438.795px 92.125px;" id="el84lkhx99bm5" class="animable"></polygon><g id="elnzvvwm4r2tb"><polygon points="424.8 116.38 452.06 100.65 452.06 76.37 452.79 75.95 452.79 67.87 424.8 84.03 424.8 116.38" style="fill: rgb(255, 255, 255); opacity: 0.45; transform-origin: 438.795px 92.125px;" class="animable"></polygon></g><g id="el0524ws9bdil5"><polygon points="452.06 76.37 424.8 92.11 424.8 93.27 452.06 77.54 452.06 76.37" style="opacity: 0.1; transform-origin: 438.43px 84.82px;" class="animable"></polygon></g><polygon points="452.79 67.87 424.8 51.71 396.81 67.87 424.8 84.03 452.79 67.87" style="fill: rgb(104, 200, 106); transform-origin: 424.8px 67.87px;" id="elhlhwywxu2ai" class="animable"></polygon><g id="elfn4qcyja4xn"><polygon points="452.79 67.87 424.8 51.71 396.81 67.87 424.8 84.03 452.79 67.87" style="fill: rgb(255, 255, 255); opacity: 0.6; transform-origin: 424.8px 67.87px;" class="animable"></polygon></g><polygon points="436.16 109.82 436.16 77.46 440.71 74.84 440.71 107.2 436.16 109.82" style="fill: rgb(104, 200, 106); transform-origin: 438.435px 92.33px;" id="elvuvblm8bg4" class="animable"></polygon><g id="ell3sifiqzjs"><polygon points="436.16 109.82 436.16 77.46 440.71 74.84 440.71 107.2 436.16 109.82" style="opacity: 0.15; transform-origin: 438.435px 92.33px;" class="animable"></polygon></g><polygon points="413.43 109.82 413.43 77.46 408.88 74.84 408.88 107.2 413.43 109.82" style="fill: rgb(104, 200, 106); transform-origin: 411.155px 92.33px;" id="elhpjzc88h6pk" class="animable"></polygon><g id="eliybuny9unz8"><polygon points="413.43 109.82 413.43 77.46 408.88 74.84 408.88 107.2 413.43 109.82" style="opacity: 0.4; transform-origin: 411.155px 92.33px;" class="animable"></polygon></g><polygon points="440.71 74.84 412.72 58.68 408.18 61.31 436.16 77.46 440.71 74.84" style="fill: rgb(104, 200, 106); transform-origin: 424.445px 68.07px;" id="elxxv91phs6ir" class="animable"></polygon><g id="eln13bvgmn4kr"><polygon points="425.17 71.12 429.72 68.49 425.17 65.87 420.62 68.49 425.17 71.12" style="opacity: 0.25; transform-origin: 425.17px 68.495px;" class="animable"></polygon></g><polygon points="413.43 77.46 441.42 61.3 436.87 58.68 408.88 74.84 413.43 77.46" style="fill: rgb(104, 200, 106); transform-origin: 425.15px 68.07px;" id="elt2dt1thnx6e" class="animable"></polygon><polygon points="424.83 70.81 426.88 82.82 426.88 100.03 431.34 94.76 431.34 80.25 425.79 68.97 424.83 70.81" style="fill: rgb(104, 200, 106); transform-origin: 428.085px 84.5px;" id="el9gah1rl4l18" class="animable"></polygon><g id="elo8xf7l3m81k"><polygon points="424.83 70.81 426.88 82.82 426.88 100.03 431.34 94.76 431.34 80.25 425.79 68.97 424.83 70.81" style="opacity: 0.1; transform-origin: 428.085px 84.5px;" class="animable"></polygon></g><polygon points="425.93 69.78 443.7 70.89 446.9 66.85 425.94 68.07 425.93 69.78" style="fill: rgb(104, 200, 106); transform-origin: 436.415px 68.87px;" id="elfmdur5ct0mr" class="animable"></polygon><g id="elf4695yga4wg"><polygon points="425.93 69.78 443.7 70.89 446.9 66.85 425.94 68.07 425.93 69.78" style="opacity: 0.1; transform-origin: 436.415px 68.87px;" class="animable"></polygon></g><path d="M403.27,59.86s-.28,3.9,4,6.73c6.81,4.55,14.85,4.44,17.59,4.22l0-2.46s-6.37-.7-10.47-4.6C410.64,60.24,410,52.06,410,52.06Z" style="fill: rgb(104, 200, 106); transform-origin: 414.063px 61.4762px;" id="elrj903ea6y0r" class="animable"></path><g id="elu8ljxoboq"><path d="M403.27,59.86s-.28,3.9,4,6.73c6.81,4.55,14.85,4.44,17.59,4.22l0-2.46s-6.37-.7-10.47-4.6C410.64,60.24,410,52.06,410,52.06Z" style="opacity: 0.5; transform-origin: 414.063px 61.4762px;" class="animable"></path></g><path d="M424.83,68.66a19.19,19.19,0,0,0-5.59-11.29c-5.06-4.77-9.2-5.31-9.2-5.31a15.2,15.2,0,0,0-6.77,7.8s4.28-1,11.23,2c6.18,2.67,10.33,8.91,10.33,8.91Z" style="fill: rgb(104, 200, 106); transform-origin: 414.05px 61.415px;" id="elvesl2md6ii" class="animable"></path><g id="elh1jewzmwxnu"><path d="M424.83,68.66a19.19,19.19,0,0,0-5.59-11.29c-5.06-4.77-9.2-5.31-9.2-5.31a15.2,15.2,0,0,0-6.77,7.8s4.28-1,11.23,2c6.18,2.67,10.33,8.91,10.33,8.91Z" style="opacity: 0.15; transform-origin: 414.05px 61.415px;" class="animable"></path></g><path d="M409.13,60.18a27.23,27.23,0,0,1,5.37,1.72,16.84,16.84,0,0,1,1.7.85l3.33-5.09-.29-.29a24.18,24.18,0,0,0-5-3.72C412.88,55.3,410.64,58.2,409.13,60.18Z" style="fill: rgb(104, 200, 106); transform-origin: 414.33px 58.2px;" id="elxk77pu464q" class="animable"></path><path d="M443.7,57.79s.86,3.81-2.91,7.25c-6.05,5.52-13.21,5.58-16,5.77l-.33-2.44a14.26,14.26,0,0,0,8.85-5.07c3.13-4,2.48-12.2,2.48-12.2Z" style="fill: rgb(104, 200, 106); transform-origin: 434.122px 60.955px;" id="elzhy0aiwfzno" class="animable"></path><g id="elqwt12fdb8iq"><path d="M443.7,57.79s.86,3.81-2.91,7.25c-6.05,5.52-13.21,5.58-16,5.77l-.33-2.44a14.26,14.26,0,0,0,8.85-5.07c3.13-4,2.48-12.2,2.48-12.2Z" style="opacity: 0.5; transform-origin: 434.122px 60.955px;" class="animable"></path></g><path d="M424.51,68.68a13.91,13.91,0,0,1,3-11c4.28-5.48,8.29-6.63,8.29-6.63a15.23,15.23,0,0,1,7.87,6.69s-4.38-.32-10.79,3.7a22.24,22.24,0,0,0-8.08,9.32Z" style="fill: rgb(104, 200, 106); transform-origin: 434.006px 60.905px;" id="elnhdjafcv1wj" class="animable"></path><g id="elsysv248sfe"><path d="M424.51,68.68a13.91,13.91,0,0,1,3-11c4.28-5.48,8.29-6.63,8.29-6.63a15.23,15.23,0,0,1,7.87,6.69s-4.38-.32-10.79,3.7a22.24,22.24,0,0,0-8.08,9.32Z" style="opacity: 0.15; transform-origin: 434.006px 60.905px;" class="animable"></path></g><path d="M429,56c2,1,4.93,2.52,7.2,3.69a20.27,20.27,0,0,1,6.14-1.86,23,23,0,0,0-7.83-6.19A20,20,0,0,0,429,56Z" style="fill: rgb(104, 200, 106); transform-origin: 435.67px 55.665px;" id="el4xduy0nq74w" class="animable"></path><polygon points="431.34 80.25 426.88 82.82 426.88 100.03 431.34 94.76 431.34 80.25" style="fill: rgb(104, 200, 106); transform-origin: 429.11px 90.14px;" id="el2q6rq06w8z3" class="animable"></polygon><g id="elaga9x7p93xt"><polygon points="431.34 80.25 426.88 82.82 426.88 100.03 431.34 94.76 431.34 80.25" style="opacity: 0.15; transform-origin: 429.11px 90.14px;" class="animable"></polygon></g></g></g></g></g><g id="freepik--character-4--inject-55" class="animable" style="transform-origin: 414.335px 269.831px;"><g id="freepik--friend--inject-55" class="animable" style="transform-origin: 414.335px 269.831px;"><path d="M454.87,245.2l-72-41.69a9,9,0,0,0-8.15,0l-.89.54a9,9,0,0,0-4.07,7v76.3c0,2.6,0,4.69,3.69,6.78l8,4.62a14.89,14.89,0,0,1-7.33,8.27,1,1,0,0,0,.24,1.95,20.13,20.13,0,0,0,17-4.48l54.53,31.61a9,9,0,0,0,8.15,0l.89-.54a9,9,0,0,0,4.07-7.06V252.26A9,9,0,0,0,454.87,245.2Z" style="fill: rgb(250, 250, 250); transform-origin: 414.38px 269.805px;" id="el6dhrcisgq87" class="animable"></path><path d="M369.86,210c.47-1.73,2.05-2.28,3.93-1.2l72,41.7a8,8,0,0,1,2.87,3l9-5.24a8.18,8.18,0,0,0-2.87-3l-72-41.7a9.07,9.07,0,0,0-8.15,0l-.9.54A9,9,0,0,0,369.86,210Z" style="fill: rgb(104, 200, 106); transform-origin: 413.76px 228.047px;" id="elo7g2kreh2f" class="animable"></path><g id="elfwf4idq83fh"><path d="M369.86,210c.47-1.73,2.05-2.28,3.93-1.2l72,41.7a8,8,0,0,1,2.87,3l9-5.24a8.18,8.18,0,0,0-2.87-3l-72-41.7a9.07,9.07,0,0,0-8.15,0l-.9.54A9,9,0,0,0,369.86,210Z" style="fill: rgb(255, 255, 255); opacity: 0.45; transform-origin: 413.76px 228.047px;" class="animable"></path></g><path d="M458.94,328.55a9,9,0,0,1-4.07,7.06l-.89.54a9.11,9.11,0,0,1-7.45.34c1.91.72,3.37-.37,3.37-2.7V257.5a8.32,8.32,0,0,0-1.19-4l9-5.24a8.43,8.43,0,0,1,1.19,4Z" style="fill: rgb(104, 200, 106); transform-origin: 452.735px 292.693px;" id="elot6l2qvolxh" class="animable"></path><g id="el5jj81lcclfa"><path d="M458.94,328.55a9,9,0,0,1-4.07,7.06l-.89.54a9.11,9.11,0,0,1-7.45.34c1.91.72,3.37-.37,3.37-2.7V257.5a8.32,8.32,0,0,0-1.19-4l9-5.24a8.43,8.43,0,0,1,1.19,4Z" style="fill: rgb(255, 255, 255); opacity: 0.25; transform-origin: 452.735px 292.693px;" class="animable"></path></g><g id="freepik--Character--inject-55" class="animable" style="transform-origin: 408.295px 286.817px;"><path d="M392.2,305.06l-.9-.52c-.24.22-.49.42-.74.62a17.3,17.3,0,0,1-1.6,1.14l-.75.45c-.27.16-.54.3-.81.44l0,0-.79.38-.67.29-.62.23a18.71,18.71,0,0,1-2.87.83l-.71.14-.72.11-.56.07-.15,0a20.6,20.6,0,0,1-6-.26,1,1,0,0,1-.24-1.95,15,15,0,0,0,7.33-8.27l-.52-.3.47-.08c2.74-2.2,5.89-2.8,9.34-3.2Z" style="fill: rgb(38, 50, 56); transform-origin: 382.788px 302.265px;" id="elepfiomlo2l4" class="animable"></path><path d="M432.65,324.82c-.09,1-.18,2.07-.28,3.17l-11.23-6.51-26.92-15.6-.25.21-1.77-1-.9-.52a19.61,19.61,0,0,1-11,4.74,38.4,38.4,0,0,1,2.14-5.5c2.76-6.26,7.47-8.41,8.27-8.56,3.22-.6,10.21-1.12,20.68.67,8.12,1.39,19.32,7.41,19.32,7.41C433.3,305.71,433.6,314.5,432.65,324.82Z" style="fill: rgb(104, 200, 106); transform-origin: 406.722px 311.339px;" id="elly8k2todhj8" class="animable"></path><g id="els8ubztanfir"><path d="M432.65,324.82c-.09,1-.18,2.07-.28,3.17l-11.23-6.51-26.92-15.6-.25.21-1.77-1-.9-.52a19.61,19.61,0,0,1-11,4.74,38.4,38.4,0,0,1,2.14-5.5c2.76-6.26,7.47-8.41,8.27-8.56,3.22-.6,10.21-1.12,20.68.67,8.12,1.39,19.32,7.41,19.32,7.41C433.3,305.71,433.6,314.5,432.65,324.82Z" style="opacity: 0.2; transform-origin: 406.722px 311.339px;" class="animable"></path></g><path d="M389.18,262.92a8.89,8.89,0,0,1-3.06-4.68,15.8,15.8,0,0,1-.4-6.54,8.42,8.42,0,0,1,.71-2.23,3.08,3.08,0,0,1,2.4-1.16c.56-.08,1.13-.14,1.69-.19a11.36,11.36,0,0,1-2.28-3.93,6.55,6.55,0,0,1,.05-3.54,2.16,2.16,0,0,1,.42-.86,1.8,1.8,0,0,1,1.91-.2,34,34,0,0,0,11.9,1.33c3.19-.1,4.81-.47,9.2-.79s12,2.05,12.78,11c5.77,1.2,5.84,11.4,3.87,15.65-3.61,7.82-6.9,13-8.84,18.61-.29-.24-19-13-23.31-16.57l-4.78-4C390.67,264.14,389.89,263.55,389.18,262.92Z" style="fill: rgb(38, 50, 56); transform-origin: 407.541px 262.397px;" id="ell57qub1hiqm" class="animable"></path><path d="M425.61,279.67c-3.67,2.71-5.76,0-5.76,0l-1.16,19.18c-7.87,9.94-27.06,7.86-18.05-2.16l.11-4.6a26.06,26.06,0,0,1-5.32-.37,8.48,8.48,0,0,1-3-1.32,9.68,9.68,0,0,1-3.85-6.26,53.06,53.06,0,0,1-.75-13.78c.33-5.57,1.31-12.75,3.25-16.45,3.28-2.87,12.5-2.94,20.08-.37,0,2.08-.3,3.9,1.1,6.22A7.66,7.66,0,0,0,415,262.3c0,4.06,0,5.15.62,6.95.32,1,1,2.6,2.94,1.9.93-.33,1.73-2.47,2.75-3.88,1.38-1.89,5.37-2.7,7,1.51A9.91,9.91,0,0,1,425.61,279.67Z" style="fill: rgb(255, 168, 167); transform-origin: 408.309px 278.51px;" id="elikhfigxrogl" class="animable"></path><path d="M400.76,292.05c3.93-.33,11-1.77,13.17-4.29s4.12-8.43,4.12-8.43-1.2,6.65-2.91,9.52-5.16,3.95-7.68,4.71a40.43,40.43,0,0,1-6.77,1.05Z" style="fill: rgb(242, 143, 143); transform-origin: 409.37px 286.97px;" id="el6i5uq8vf6ud" class="animable"></path><path d="M404.65,263.39l3.62,1.83a2.31,2.31,0,0,0-.9-3A2,2,0,0,0,404.65,263.39Z" style="fill: rgb(38, 50, 56); transform-origin: 406.577px 263.63px;" id="el5okjaavlhkh" class="animable"></path><path d="M394.37,262.23l-4,1.24A2.48,2.48,0,0,1,392,260.7,1.86,1.86,0,0,1,394.37,262.23Z" style="fill: rgb(38, 50, 56); transform-origin: 392.351px 262.047px;" id="el0djpohmbxzxf" class="animable"></path><path d="M405.49,278.21l-6.95,2.65a3.57,3.57,0,0,0,4.67,2.4A4.07,4.07,0,0,0,405.49,278.21Z" style="fill: rgb(177, 102, 104); transform-origin: 402.121px 280.844px;" id="elnolqz77yr5g" class="animable"></path><path d="M405.18,279.74a3.87,3.87,0,0,0-3.78,3.69,3.42,3.42,0,0,0,1.81-.17,4,4,0,0,0,2.47-3.46A2.84,2.84,0,0,0,405.18,279.74Z" style="fill: rgb(242, 143, 143); transform-origin: 403.54px 281.611px;" id="elbmuqn7lpt54" class="animable"></path><polygon points="399.92 264.02 397.86 277.17 391.72 274.16 399.92 264.02" style="fill: rgb(242, 143, 143); transform-origin: 395.82px 270.595px;" id="el5pslzamb9si" class="animable"></polygon><path d="M407,268.1A2,2,0,0,1,405.1,270a1.76,1.76,0,0,1-1.69-1.93,2,2,0,0,1,1.88-1.91A1.75,1.75,0,0,1,407,268.1Z" style="fill: rgb(38, 50, 56); transform-origin: 405.206px 268.08px;" id="elngdvu2769ma" class="animable"></path><path d="M394.61,266.81a1.84,1.84,0,0,1-1.76,1.79,1.66,1.66,0,0,1-1.58-1.81A1.84,1.84,0,0,1,393,265,1.66,1.66,0,0,1,394.61,266.81Z" style="fill: rgb(38, 50, 56); transform-origin: 392.94px 266.8px;" id="elsdg24s0ynsc" class="animable"></path><path d="M443.13,334.23,432.37,328l-11.23-6.51c0-.16,0-.33,0-.49.56-10.9,9.53-17.69,9.53-17.69,4.16,2.18,9.22,6.36,11.11,11.76S443.16,322.65,443.13,334.23Z" style="fill: rgb(38, 50, 56); transform-origin: 432.177px 318.77px;" id="elspg0cch3x69" class="animable"></path></g><path d="M372,209.48a2.4,2.4,0,0,1,1.17.39l72.05,41.69a6.87,6.87,0,0,1,2.39,2.55,7.09,7.09,0,0,1,1,3.38V333.8c0,.6-.12,1.61-1,1.61a1.67,1.67,0,0,1-.47-.07l-.09,0h0l-.05,0a4.49,4.49,0,0,1-.54-.26l-31.75-18.39-13.57-7.88-9.2-5.34-.81-.46-.7.61a18.46,18.46,0,0,1-12.3,4.53,18.89,18.89,0,0,1-2.84-.21,16.23,16.23,0,0,0,7.33-8.7l.31-1-.89-.52-8-4.62c-3.06-1.74-3.06-3.22-3.06-5.66V211.11a4.7,4.7,0,0,1,.07-.82h0c.22-.81.69-.81.87-.81m0-1.28h0a2.14,2.14,0,0,0-2.11,1.75,6.82,6.82,0,0,1,.2-.87,6.55,6.55,0,0,0-.34,2V287.4c0,2.59,0,4.7,3.7,6.77l8,4.63a14.89,14.89,0,0,1-7.33,8.27,1,1,0,0,0,.24,1.95,20.22,20.22,0,0,0,17-4.48l9.21,5.34,13.57,7.87,31.75,18.4c.22.12.45.23.69.34a2.46,2.46,0,0,0,.29.09,3.14,3.14,0,0,0,.83.12c1.35,0,2.26-1.06,2.26-2.9V257.49a8.33,8.33,0,0,0-1.2-4,8.11,8.11,0,0,0-2.87-3l-72-41.68a3.69,3.69,0,0,0-1.82-.56Z" style="fill: rgb(104, 200, 106); transform-origin: 409.775px 272.45px;" id="eliqdtgssf37j" class="animable"></path></g></g><g id="freepik--character-3--inject-55" class="animable" style="transform-origin: 89.715px 270.957px;"><g id="freepik--friend--inject-55" class="animable" style="transform-origin: 89.715px 270.957px;"><path d="M126.78,222.16a7.49,7.49,0,0,0-3.39-5.86l-.74-.45a7.48,7.48,0,0,0-6.77,0L56,250.5a7.47,7.47,0,0,0-3.38,5.86v63.39A7.45,7.45,0,0,0,56,325.61l.74.45a7.48,7.48,0,0,0,6.77,0l45.31-26.26A16.76,16.76,0,0,0,123,303.53a.86.86,0,0,0,.2-1.62,12.41,12.41,0,0,1-6.09-6.88l6.63-3.84c3-1.73,3.07-3.47,3.07-5.63Z" style="fill: rgb(250, 250, 250); transform-origin: 89.715px 270.955px;" id="eljy7tzqniqsd" class="animable"></path><path d="M126.67,221.2c-.4-1.44-1.71-1.89-3.27-1L63.54,254.85a6.77,6.77,0,0,0-2.38,2.53L53.65,253A6.93,6.93,0,0,1,56,250.5l59.85-34.64a7.48,7.48,0,0,1,6.77,0l.75.45A7.5,7.5,0,0,1,126.67,221.2Z" style="fill: rgb(104, 200, 106); transform-origin: 90.16px 236.215px;" id="el6ql20uq76tn" class="animable"></path><g id="elriq0n69ldhf"><path d="M126.67,221.2c-.4-1.44-1.71-1.89-3.27-1L63.54,254.85a6.77,6.77,0,0,0-2.38,2.53L53.65,253A6.93,6.93,0,0,1,56,250.5l59.85-34.64a7.48,7.48,0,0,1,6.77,0l.75.45A7.5,7.5,0,0,1,126.67,221.2Z" style="fill: rgb(255, 255, 255); opacity: 0.45; transform-origin: 90.16px 236.215px;" class="animable"></path></g><path d="M52.65,319.75A7.45,7.45,0,0,0,56,325.61l.74.45a7.58,7.58,0,0,0,6.19.29c-1.59.6-2.8-.31-2.8-2.24v-63.4a6.92,6.92,0,0,1,1-3.33L53.64,253a7,7,0,0,0-1,3.34Z" style="fill: rgb(104, 200, 106); transform-origin: 57.785px 289.937px;" id="elju05ctk3ca9" class="animable"></path><g id="el7nzrx6qps9"><path d="M52.65,319.75A7.45,7.45,0,0,0,56,325.61l.74.45a7.58,7.58,0,0,0,6.19.29c-1.59.6-2.8-.31-2.8-2.24v-63.4a6.92,6.92,0,0,1,1-3.33L53.64,253a7,7,0,0,0-1,3.34Z" style="fill: rgb(255, 255, 255); opacity: 0.25; transform-origin: 57.785px 289.937px;" class="animable"></path></g><g id="freepik--Chest--inject-55" class="animable" style="transform-origin: 92.4994px 285.808px;"><path d="M123,303.52a16,16,0,0,1-3.57.29,16.66,16.66,0,0,1-8.92-2.75l-2.17-11.66c4.93,0,8.22.47,10.64,1.94a13.81,13.81,0,0,1,2,1.46L117.08,295a12.35,12.35,0,0,0,6.09,6.87A.86.86,0,0,1,123,303.52Z" style="fill: rgb(38, 50, 56); transform-origin: 116.029px 296.609px;" id="elbix8os8fmf" class="animable"></path><g id="freepik--chest--inject-55" class="animable" style="transform-origin: 94.3924px 305.627px;"><path d="M119.4,303.81a16.66,16.66,0,0,1-8.92-2.75,16.14,16.14,0,0,1-1.63-1.26L77.44,318l-6.89,4c-.2-1-.4-2-.62-3-1.56-7.42.4-18.95,3.69-20.55,4.29-2.09,5.36-2.74,6.6-3.68a24.1,24.1,0,0,1,15.92-5.51c3.9.05,7.8,0,12.17.14C112.85,289.59,117,294.44,119.4,303.81Z" style="fill: rgb(55, 71, 79); transform-origin: 94.3924px 305.627px;" id="el5nue861rzqx" class="animable"></path></g><g id="freepik--Head--inject-55" class="animable" style="transform-origin: 93.7937px 274.613px;"><path d="M80.53,253.59c-4.26,5.5-2.23,10.66-.31,17.15,2.22,7.37,3.73,11,5.4,11.49-1.93-23.17,6.74,5.16,23.17-12.88,3-3.27,2.71-13.35-1.28-17.91C101.88,245,88.88,243.21,80.53,253.59Z" style="fill: rgb(38, 50, 56); transform-origin: 94.4095px 264.218px;" id="elfs3b04dh1v" class="animable"></path><path d="M79.9,278.2c2.46,1.7,4.52-.93,4.52-.93l1.23,15.37s0,1.95,4.26,4.38c2.8,1.61,8.61,2.53,11.92,6,1.39-2.52,2.51-7.2-.6-11.18L101,287.7a8.64,8.64,0,0,0,9.34-6.75c1.26-5.57.65-14-1.69-24.87-3.43-2.83-15.42-2.79-20.86,2.16,1.87,6.58-1.31,8.1-1.23,10.43a7.37,7.37,0,0,1-1.36,2c-1.06,1-2-1.65-3-2.7s-4-2.48-5.38.89S77.77,276.73,79.9,278.2Z" style="fill: rgb(177, 102, 104); transform-origin: 93.6937px 278.602px;" id="elr3twx36hxy" class="animable"></path><path d="M95.13,263l-2.84,1.91a2,2,0,0,1,.47-2.59A1.67,1.67,0,0,1,95.13,263Z" style="fill: rgb(38, 50, 56); transform-origin: 93.5683px 263.491px;" id="elpxgdv4i9hdi" class="animable"></path><path d="M108.12,263.13l-3.43-1.05a1.55,1.55,0,0,1,2-1.26A2.1,2.1,0,0,1,108.12,263.13Z" style="fill: rgb(38, 50, 56); transform-origin: 106.417px 261.939px;" id="elq399oujpkl" class="animable"></path><path d="M93.92,267.35a1.55,1.55,0,0,0,1.5,1.49,1.39,1.39,0,0,0,1.31-1.55,1.53,1.53,0,0,0-1.5-1.48A1.39,1.39,0,0,0,93.92,267.35Z" style="fill: rgb(38, 50, 56); transform-origin: 95.3256px 267.325px;" id="el0q4hzot6u8po" class="animable"></path><path d="M105,266.3a1.54,1.54,0,0,0,1.51,1.48,1.4,1.4,0,0,0,1.31-1.55,1.55,1.55,0,0,0-1.51-1.48A1.4,1.4,0,0,0,105,266.3Z" style="fill: rgb(38, 50, 56); transform-origin: 106.41px 266.265px;" id="elqivbrebjoj" class="animable"></path><path d="M99.57,263l1,9.31,5-1.83C104.71,267.91,101.59,264.05,99.57,263Z" style="fill: rgb(154, 74, 77); transform-origin: 102.57px 267.655px;" id="elljmddfqwmlq" class="animable"></path><path d="M86.49,267.82c.3,6.32,3,7.53,5.27,8.19,3.57,1.06,5.21-2.15,9.35-2.47,2.37-.18,3,.29,5.22,1.7A7.41,7.41,0,0,0,108,276c.85.17,2.14.29,2.49-1a23.27,23.27,0,0,0,0-7.7l-.14-1.51a52.2,52.2,0,0,1,.77,11.83c-.29,3.24-1.36,6.27-3,7.81-2.18,2.11-6.1,3.32-12.19,2.14s-8.48-3.25-9.38-5.5c-2.92-7.31-2.27-10.85-3.17-12.22S86.49,267.82,86.49,267.82Z" style="fill: rgb(38, 50, 56); transform-origin: 97.2153px 276.911px;" id="eleoygnhwcjju" class="animable"></path><path d="M102.62,275.42c2.83.27,4.28,1.44,4.41,3.41s-.34,4.4-2,5.13-1.54-1.18-1.33-2.21-.36-.8-1.28-.78-1.29-.11-.94.93.86,2.5-1,2.32-3.35-2.14-3.8-4.63S98.35,275,102.62,275.42Z" style="fill: rgb(177, 102, 104); transform-origin: 101.836px 279.801px;" id="el6eots0guygb" class="animable"></path><path d="M98.8,277h4.81a2.43,2.43,0,0,1-2.37,2.4A2.37,2.37,0,0,1,98.8,277Z" style="fill: rgb(154, 74, 77); transform-origin: 101.205px 278.201px;" id="elgi4aa18fydq" class="animable"></path><path d="M98.88,277.68a2.44,2.44,0,0,0,2.36,1.74,2.28,2.28,0,0,0,1.32-.42A5,5,0,0,0,98.88,277.68Z" style="fill: rgb(242, 143, 143); transform-origin: 100.72px 278.546px;" id="el23s2fpuuior" class="animable"></path></g><g id="freepik--head--inject-55" class="animable" style="transform-origin: 94.29px 296.071px;"><path d="M101.83,303c-1.83-1.14-6.65-3.3-7-2-.27.9-1.05,4.18-2.41,4.1-1.8-.09-6.69-1.92-9.94-6a9.14,9.14,0,0,1-2.22-4.38s1.6-3.46,2.59-5,1.25-2.58,2.36-2.68l.3,3.24A11.87,11.87,0,0,0,88.79,294C92.05,296.36,98.54,298.92,101.83,303Z" style="fill: rgb(38, 50, 56); transform-origin: 91.045px 296.071px;" id="el10p2xrmbw2f9" class="animable"></path><path d="M101.83,303c1-1.05,2.63-5.36,3.49-5.19,1.78.35,3,1.71,3,.72s-1.32-3.1-2.93-6c-1.23-2.2-3.19-4-4.35-4.21l.27,4.45a12.09,12.09,0,0,1,.93,3.82A13.74,13.74,0,0,1,101.83,303Z" style="fill: rgb(38, 50, 56); transform-origin: 104.68px 295.66px;" id="el00itz07909ce5" class="animable"></path></g><path d="M77.58,316.69,63,325.13a4.71,4.71,0,0,1-.45.22l0,0h0l-.07,0a1.43,1.43,0,0,1-.39.06c-.71,0-.81-.84-.81-1.34V311.35l.06-.28c1.1-5.05,7.07-10.21,12.33-12.62C77.82,303.68,78.08,311.35,77.58,316.69Z" style="fill: rgb(38, 50, 56); transform-origin: 69.5232px 311.93px;" id="elc5i3z2j4ize" class="animable"></path></g><path d="M124.91,220.82c.15,0,.54,0,.72.67h0a4,4,0,0,1,.06.67v63.4c0,2,0,3.26-2.54,4.7l-6.63,3.84-.74.43.26.82a13.41,13.41,0,0,0,6.09,7.23A15.76,15.76,0,0,1,109.56,299l-.58-.51-.67.38-7.65,4.44-11.27,6.54L63,325.14l-.45.21,0,0h0l-.07,0a1.49,1.49,0,0,1-.4.06c-.7,0-.8-.84-.8-1.34v-63.4a5.9,5.9,0,0,1,.86-2.81,5.53,5.53,0,0,1,2-2.12l59.86-34.64a1.91,1.91,0,0,1,1-.32m0-1.07a3.1,3.1,0,0,0-1.51.46L63.54,254.85a6.79,6.79,0,0,0-2.39,2.53,7,7,0,0,0-1,3.33v63.4c0,1.53.76,2.41,1.87,2.41a2.45,2.45,0,0,0,.69-.1,1.82,1.82,0,0,0,.25-.07,5.07,5.07,0,0,0,.57-.29l26.38-15.28,11.28-6.54,7.65-4.44a16.49,16.49,0,0,0,10.94,4,17.24,17.24,0,0,0,3.18-.3.86.86,0,0,0,.2-1.62,12.41,12.41,0,0,1-6.09-6.88l6.63-3.85c3-1.72,3.07-3.47,3.07-5.62v-63.4a5.58,5.58,0,0,0-.28-1.68c.06.24.13.49.17.73a1.79,1.79,0,0,0-1.76-1.46Z" style="fill: rgb(104, 200, 106); transform-origin: 93.46px 273.115px;" id="eleh5mmkhpkyn" class="animable"></path></g></g><g id="freepik--character-2--inject-55" class="animable" style="transform-origin: 78.035px 111.347px;"><g id="freepik--friend--inject-55" class="animable" style="transform-origin: 78.035px 111.347px;"><path d="M123,52.18a9.1,9.1,0,0,0-4.1-7.11l-.9-.54a9.09,9.09,0,0,0-8.21,0l-72.57,42a9.06,9.06,0,0,0-4.1,7.11v76.86a9.09,9.09,0,0,0,4.1,7.11l.9.54a9,9,0,0,0,8.21,0l54.94-31.84a20.25,20.25,0,0,0,17.11,4.52,1,1,0,0,0,.25-2,15.06,15.06,0,0,1-7.39-8.34l8-4.66c3.69-2.1,3.72-4.21,3.72-6.83Z" style="fill: rgb(250, 250, 250); transform-origin: 78.06px 111.346px;" id="el1z2iqf6qd9b" class="animable"></path><path d="M122.82,51c-.48-1.75-2.07-2.3-4-1.21l-72.58,42a8.1,8.1,0,0,0-2.89,3.07l-9.1-5.28a8.3,8.3,0,0,1,2.89-3.06l72.57-42a9.13,9.13,0,0,1,8.21,0l.9.55A9,9,0,0,1,122.82,51Z" style="fill: rgb(104, 200, 106); transform-origin: 78.535px 69.2026px;" id="ele1maab5ovpw" class="animable"></path><g id="el0agrdvcukhx8"><path d="M122.82,51c-.48-1.75-2.07-2.3-4-1.21l-72.58,42a8.1,8.1,0,0,0-2.89,3.07l-9.1-5.28a8.3,8.3,0,0,1,2.89-3.06l72.57-42a9.13,9.13,0,0,1,8.21,0l.9.55A9,9,0,0,1,122.82,51Z" style="fill: rgb(255, 255, 255); opacity: 0.45; transform-origin: 78.535px 69.2026px;" class="animable"></path></g><path d="M33.07,170.51a9.09,9.09,0,0,0,4.1,7.11l.9.54a9.15,9.15,0,0,0,7.5.35c-1.93.73-3.4-.37-3.4-2.71V98.93a8.44,8.44,0,0,1,1.2-4.05l-9.1-5.28a8.44,8.44,0,0,0-1.2,4.05Z" style="fill: rgb(104, 200, 106); transform-origin: 39.32px 134.375px;" id="eluxfgh5v4vgo" class="animable"></path><g id="el8qn1hz8u2vn"><path d="M33.07,170.51a9.09,9.09,0,0,0,4.1,7.11l.9.54a9.15,9.15,0,0,0,7.5.35c-1.93.73-3.4-.37-3.4-2.71V98.93a8.44,8.44,0,0,1,1.2-4.05l-9.1-5.28a8.44,8.44,0,0,0-1.2,4.05Z" style="fill: rgb(255, 255, 255); opacity: 0.25; transform-origin: 39.32px 134.375px;" class="animable"></path></g><g id="freepik--Top--inject-55" class="animable" style="transform-origin: 87.4534px 126.625px;"><g id="freepik--Arm--inject-55" class="animable" style="transform-origin: 109.035px 142.37px;"><path d="M118.87,149.09,117.2,151a16,16,0,0,1-2.32.17,20.21,20.21,0,0,1-9.87-2.27L99.2,133.61c6.34-.19,9.73,0,14.14,4.33.24.23.53.52.86.86l-3,1.75a15,15,0,0,0,7.39,8.33A.94.94,0,0,1,118.87,149.09Z" style="fill: rgb(240, 153, 122); transform-origin: 109.035px 142.37px;" id="eltwh7r9jrxpb" class="animable"></path></g><g id="freepik--chest--inject-55" class="animable" style="transform-origin: 91.045px 148.845px;"><path d="M114.88,151.19a20.21,20.21,0,0,1-9.87-2.27,19.14,19.14,0,0,1-3.8-2.6L74.6,161.74,70.75,164a21.24,21.24,0,0,0,.57-3.37c1.11-11.7-3.58-17.59-4.11-18.22l0,0h0a68,68,0,0,1,8.86-4.2c5-1.94,7.81-2.93,17.24-4.33l5.93-.19a90.72,90.72,0,0,1,11.41,10.29A19.81,19.81,0,0,1,114.88,151.19Z" style="fill: rgb(240, 240, 240); transform-origin: 91.045px 148.845px;" id="elh58dxx0h8o5" class="animable"></path></g><g id="freepik--head--inject-55" class="animable" style="transform-origin: 82.1502px 114.115px;"><path id="freepik--Hair--inject-55" d="M108.16,131.06c1.31-9.85-10.17-8.94-13.52-15.25l8.72-6.77c5.37-3.67,4.29-11.69,2.5-15.79-4-9.14-13.7-12-19.52-12-11,.06-16.08,3.46-16.61,9.67-4.08-.1-9.79,4.69-9.19,18,.13,2.65.43,5.88-.78,8.18-1.06,2-2.67,4-3.35,6.27-1.13,3.79.27,9.24,4.69,9.81-.37-1-1-2.31-.21-3.26.52,4.69,8.19,7.33,11.61,6.05a4,4,0,0,1-2-2.27c5.79,3,10.56,1.56,16.16-.85,1-.44,1.69-.64,5,.22,2,.52,4.45.75,8.15-1.48C102.12,130.14,105.76,128,108.16,131.06Z" style="fill: rgb(55, 71, 79); transform-origin: 82.1502px 108.771px;" class="animable"></path><path d="M72.91,120.48a5.62,5.62,0,0,1-5.19-2c-2.86-3.11-3.31-6.32-2.2-8.5.91-1.78,3.36-3,5.2-1.8s2.09,2.27,2.89,3.7,3.55,1.24,3.85-4.59c.28-5.44.74-10.43,3-12.93,3.45-3.73,7.81-2.21,9.41-.09,1.35-2.56,3.93-3.59,6.53-2.19s4.17,4.35,5.67,14.62c1.53,10.47,0,18-2.15,19.76-1.61,1.37-3.74,1.71-7.38,2l.3,6.94s4,2.59,4.51,11.58c-6.35-1.38-16.15-3.47-21.56-8.36l-.94-19.81S74.77,120.06,72.91,120.48Z" style="fill: rgb(255, 189, 167); transform-origin: 83.8252px 119.216px;" id="elv352rnc3t2c" class="animable"></path><path d="M87.29,108a1.57,1.57,0,0,1-2,1.25A1.88,1.88,0,0,1,84.16,107a1.54,1.54,0,0,1,1.94-1.25A1.88,1.88,0,0,1,87.29,108Z" style="fill: rgb(38, 50, 56); transform-origin: 85.7223px 107.504px;" id="el7pww5cffrb" class="animable"></path><path d="M85.52,105.69c-1,0-1.51,1.53-2.51,1a1.46,1.46,0,0,0,2,.81C85.46,107.21,85.52,105.69,85.52,105.69Z" style="fill: rgb(38, 50, 56); transform-origin: 84.265px 106.667px;" id="elf3bshx5vbpp" class="animable"></path><path d="M99.49,102.77,96,101a1.73,1.73,0,0,1,2.46-1A2.33,2.33,0,0,1,99.49,102.77Z" style="fill: rgb(38, 50, 56); transform-origin: 97.8082px 101.284px;" id="elklfzco5vf19" class="animable"></path><path d="M95.77,107.22a1.67,1.67,0,0,0,2.15,1,1.76,1.76,0,0,0,.79-2.31,1.69,1.69,0,0,0-2.15-1A1.77,1.77,0,0,0,95.77,107.22Z" style="fill: rgb(38, 50, 56); transform-origin: 97.2415px 106.568px;" id="els1hxuzypzgl" class="animable"></path><path d="M97.13,104.8c1,0,1.76,1.37,2.66.71a1.36,1.36,0,0,1-1.85,1C97.46,106.3,97.13,104.8,97.13,104.8Z" style="fill: rgb(38, 50, 56); transform-origin: 98.46px 105.706px;" id="eliwrkuyxjp0s" class="animable"></path><path d="M85.58,101.77l-3.33,2.42a2.19,2.19,0,0,1,.39-3A2.09,2.09,0,0,1,85.58,101.77Z" style="fill: rgb(38, 50, 56); transform-origin: 83.7027px 102.505px;" id="el9j03kuh9ibk" class="animable"></path><path d="M86.62,116.66l5.45,1.51a2.65,2.65,0,0,1-3.56,2.07A3,3,0,0,1,86.62,116.66Z" style="fill: rgb(177, 102, 104); transform-origin: 89.2966px 118.536px;" id="elmos0sbyshi" class="animable"></path><path d="M90.05,120.31a3.14,3.14,0,0,0-3.2-2.61,1.19,1.19,0,0,0-.26,0,2.78,2.78,0,0,0,1.92,2.49A3,3,0,0,0,90.05,120.31Z" style="fill: rgb(240, 153, 122); transform-origin: 88.32px 119.026px;" id="elxwk452au7oo" class="animable"></path><polygon points="90.3 104.16 92.03 114.44 97.08 112.17 90.3 104.16" style="fill: rgb(240, 153, 122); transform-origin: 93.69px 109.3px;" id="el2ag66275h3g" class="animable"></polygon><path d="M92.58,128.44a32.35,32.35,0,0,1-10.51-1.85c-1.25-.49-3.07-2.75-4.62-5.3,0,0,1.38,5.11,4.13,6.75,4.17,2.49,11.1,2.76,11.1,2.76Z" style="fill: rgb(240, 153, 122); transform-origin: 85.065px 126.045px;" id="elxsrv0868g1m" class="animable"></path><path d="M76.32,120.84a4.68,4.68,0,0,1-2.18,4.66,3.66,3.66,0,0,1-1.64.54,4.8,4.8,0,0,1-5-4.36,5,5,0,0,1,.5-2.92,3.55,3.55,0,0,0,.41.38,4.28,4.28,0,0,0,.82.56,3.31,3.31,0,0,0-.3,1.85,3.24,3.24,0,0,0,3.39,2.92,2.7,2.7,0,0,0,1.68-.81,3.2,3.2,0,0,0,.89-2.69A3.25,3.25,0,0,0,71.49,118a.76.76,0,0,1-.82-.71.74.74,0,0,1,.61-.85A4.83,4.83,0,0,1,76.32,120.84Z" style="fill: rgb(104, 200, 106); transform-origin: 71.9129px 121.24px;" id="el23bavi9ot8n" class="animable"></path><g id="elfvm0uommabg"><path d="M76.32,120.84a4.68,4.68,0,0,1-2.18,4.66,3.66,3.66,0,0,1-1.64.54,4.8,4.8,0,0,1-5-4.36,5,5,0,0,1,.5-2.92,3.55,3.55,0,0,0,.41.38,4.28,4.28,0,0,0,.82.56,3.31,3.31,0,0,0-.3,1.85,3.24,3.24,0,0,0,3.39,2.92,2.7,2.7,0,0,0,1.68-.81,3.2,3.2,0,0,0,.89-2.69A3.25,3.25,0,0,0,71.49,118a.76.76,0,0,1-.82-.71.74.74,0,0,1,.61-.85A4.83,4.83,0,0,1,76.32,120.84Z" style="opacity: 0.2; transform-origin: 71.9129px 121.24px;" class="animable"></path></g></g><g id="freepik--arm--inject-55" class="animable" style="transform-origin: 65.6783px 157.185px;"><path d="M74.6,161.74,70.75,164,57,172c0-1.38-.09-2.76-.14-4.1-.69-18,2-20.39,10.34-25.53h0l0,0C73.13,147.91,74.39,156.81,74.6,161.74Z" style="fill: rgb(255, 189, 167); transform-origin: 65.6783px 157.185px;" id="eli1ztbbu43p" class="animable"></path></g></g><path d="M120.69,50.55c.18,0,.65,0,.88.82h0a6.19,6.19,0,0,1,.07.82v76.87c0,2.47,0,3.95-3.08,5.7l-8,4.66-.9.53.31,1a16.27,16.27,0,0,0,7.39,8.76,18,18,0,0,1-2.86.22,18.62,18.62,0,0,1-12.4-4.56l-.7-.62-.81.47-9.28,5.38-13.67,7.93L45.63,177c-.17.1-.35.18-.54.27l-.06,0h0l-.08,0a1.78,1.78,0,0,1-.48.08c-.85,0-1-1-1-1.63V98.92a7.19,7.19,0,0,1,1-3.4,6.94,6.94,0,0,1,2.41-2.58l72.59-42a2.42,2.42,0,0,1,1.18-.39m0-1.3a3.64,3.64,0,0,0-1.83.57l-72.59,42a8.14,8.14,0,0,0-2.89,3.06,8.45,8.45,0,0,0-1.21,4V175.8c0,1.85.93,2.93,2.28,2.93a3.17,3.17,0,0,0,.83-.13,1.49,1.49,0,0,0,.3-.09,7.4,7.4,0,0,0,.69-.34l32-18.53,13.67-7.94,9.28-5.38a20.38,20.38,0,0,0,17.11,4.52,1,1,0,0,0,.25-2,15,15,0,0,1-7.39-8.34l8-4.67c3.68-2.08,3.73-4.2,3.73-6.82V52.18a6.71,6.71,0,0,0-.34-2c.08.3.15.59.2.88a2.17,2.17,0,0,0-2.13-1.77Z" style="fill: rgb(104, 200, 106); transform-origin: 82.505px 113.99px;" id="elc26slfa9id9" class="animable"></path></g></g><g id="freepik--character-1--inject-55" class="animable" style="transform-origin: 281.693px 284.682px;"><g id="freepik--character--inject-55" class="animable" style="transform-origin: 281.693px 284.682px;"><g id="freepik--shadow--inject-55"><path d="M230.85,425.39c29,7,44.09,32.79,77.84,25.81,11.87-1.81,27.67-11.81,16.44-22.47-20.81-14.88-48.1-8.36-71.2-19.13-8.3-3.54-16.75-10.08-25.31-12.9-9.15-2.59-19.09-3.81-27.92.63a7.8,7.8,0,0,0-4.92,8.76C197.63,418.26,220.51,422.25,230.85,425.39Z" style="opacity: 0.15; transform-origin: 262.308px 423.38px;" class="animable"></path></g><g id="freepik--Bottom--inject-55" class="animable" style="transform-origin: 259.055px 335.56px;"><path d="M231.43,406.38c.67-3.59-2.85-5.71-4.54-7.7-2.63-3.07-3.51-7.94-3.63-11.7-.15-4.69-.83-8,1.83-12.37,3.15-5.14,7.58-11.19,22.62-26.16l-20.66-9.78c-3.77,6.66-12.36,20.39-12.36,20.39l-.79,1.21c-1.81,2.43-2.8,4.31-5.64,6.44l-1,.6c-1.78,1.36-6.38,2.9-6.13,7.39s2,5.55,4.12,9.16c1.35,2.3,2.31,3.45,2.58,7.94.22,3.62.05,5.18.14,8.42.07,2.73,2.67,6.6,7.82,8.19C223.25,410.72,230.77,409.91,231.43,406.38Z" style="fill: rgb(255, 168, 167); transform-origin: 224.415px 374.192px;" id="el91wlavh2yzf" class="animable"></path><path d="M198.46,374.93A51.12,51.12,0,0,0,193.29,385l5.4,7.2,4-7.61A27.22,27.22,0,0,1,198.46,374.93Z" style="fill: rgb(38, 50, 56); transform-origin: 197.99px 383.565px;" id="elyz4bh5pbz5g" class="animable"></path><path d="M198.69,392.19l7-.76a6.27,6.27,0,0,0-.87-4.43,9.35,9.35,0,0,0-2.13-2.42Z" id="elne9g6kywqv8" class="animable" style="transform-origin: 202.238px 388.385px;"></path><path d="M199.8,373.21a5.17,5.17,0,0,0-1.3,1.55c-.3.75.26,5.36,1.81,7.55s4,4.48,4.72,7.65-.41,8.11,1,12.52,5.78,9.36,14.92,10.23c6.53.62,8.93-.74,11.05-2.22.67-2.92.56-3.67-3.08-6S199.8,373.21,199.8,373.21Z" style="fill: rgb(38, 50, 56); transform-origin: 215.371px 393.037px;" id="eli6ijwcb6xrm" class="animable"></path><path d="M211.43,361c-2.77,3.69-3.76,5.1-6.38,6.81-3.17,2.06-3.81,2.86-5.25,5.42-.51,3.89.31,5.46,3.95,10.28,2.49,3.29,3.35,5.49,3.46,10.14.15,5.63-1.69,8.36,5.18,13.87,5.35,4.3,16.68,4.18,19.62.95,2.33-7.78-4.38-7-6.29-15.06-1.06-4.47-2-9.42-.84-14a16,16,0,0,1,1.94-4.35c.76-1.24,3.05-4,1.67-5.5l-.93,1.32c-1.63.43-5.27-.17-8-2.25-6.54-5-5.68-8.37-5.68-8.37l.79-1.21C214,358.29,213,358.89,211.43,361Z" style="fill: rgb(55, 71, 79); transform-origin: 216.079px 384.781px;" id="elnjpxfqfkwf" class="animable"></path><path d="M251.29,272.31l15.34-20.92s30.54-17,30.54-17.66c0,0,6.06,17.49,1.51,41.19a113.28,113.28,0,0,1-24.11,50.35c-6.52,7.64-40.33,37.7-40.33,37.7-3.39-.49-12.85-7.92-14.05-12.81,0,0,7.41-13.26,11.78-20.07,5.71-8.89,7.39-13.15,18.11-20.62C249.22,300.33,251.29,272.31,251.29,272.31Z" style="fill: rgb(55, 71, 79); transform-origin: 260.282px 298.35px;" id="elfpel4jp0uch" class="animable"></path><path d="M224.57,349.29l-.7-.44.42-.65c10.28-16.09,20.05-31,42.83-35.91l.17.81c-22.44,4.81-32.11,19.59-42.31,35.54Z" style="fill: rgb(38, 50, 56); transform-origin: 245.58px 330.79px;" id="elb0e9btslg7s" class="animable"></path><path d="M242.82,315.27q.52-.51,1.11-1l.46-.41,1.15-1,.56-.45c.42-.34.87-.68,1.32-1L248,311c.66-.49,1.36-1,2.1-1.51,0-.37-.06-.79-.09-1.23,0-.11,0-.22,0-.33,0-.42,0-.85-.05-1.31,0,0,0-.07,0-.11q0-.76,0-1.59v-.38c0-.51,0-1,0-1.58v-.16c0-.62,0-1.25,0-1.9v-.32c0-.61,0-1.23,0-1.87v-.12c0-.71,0-1.44.06-2.17v-.07c0-.73,0-1.46.07-2.2v0l29.84-24.94c.13-.65,14.22-9.8,14.22-9.8-1,8.95-10.22,13.08-10.22,13.08l3.13,34.5c-.18.31-2.63,4.57-2.82,4.87l-.65,1.06c-.35.56-.7,1.1-1.05,1.64l-.52.81c-.5.76-1,1.49-1.48,2.19-.18.25-.36.49-.53.74l-1,1.36-.58.78-.87,1.15-.53.69c-.3.39-.6.76-.89,1.11l-.4.51-1.18,1.42c-3.51,4.11-14.94,14.73-24.74,23.65a110,110,0,0,1,.46-14.12l-7.7-19.32Z" style="fill: rgb(38, 50, 56); transform-origin: 268.365px 304.19px;" id="eldg5ztgwe9tj" class="animable"></path><path d="M217.49,354.57s-.32,4.24,5.26,8.59a13.55,13.55,0,0,0,8.87,3l6.6-6.46s-3.52,1-9-3.81a17.09,17.09,0,0,1-6.05-11.22Z" style="fill: rgb(69, 90, 100); transform-origin: 227.853px 355.417px;" id="elkcjhoe8oxed" class="animable"></path><path d="M278.29,427.44c1.77,5.19,7.88,6.34,12.68,4.75,2.7-.9,4-4,5.71-6,2.53-3,6.27-4.7,9.94-6.11s7.49-2.67,10.58-5.1a16.89,16.89,0,0,0,5.59-8.08,6.58,6.58,0,0,0,.36-3.13c-.45-2.52-3.23-4.06-5.78-4.07s-5,1.13-7.31,2.15a93.64,93.64,0,0,1-9.72,3.6,10.94,10.94,0,0,1-3.18.62c-1.71,0-4.32-1.33-5-2.8-1-2.33-2.23-28.24-2.21-29.44l-24.7,6.26s9.26,28,10.74,32.71a11.06,11.06,0,0,1,.31,1.41C277.08,418.6,276.83,423.17,278.29,427.44Z" style="fill: rgb(255, 168, 167); transform-origin: 294.227px 403.342px;" id="el8ucain0cv6u" class="animable"></path><path d="M243.6,233.73c-8.43,17.53-11.56,24.42-8,42.08,2.38,12,10,32,19.22,59-.64,15.46,1.68,20.14,5,30.9,5,16.45,11.07,31.12,11.07,31.12s4.34-6.88,20.3-5.95c-1-15.55-1.9-46.07-3.2-57.34C286,316.79,280.51,269,280.51,269s20.93-.53,16.66-35.27Z" style="fill: rgb(55, 71, 79); transform-origin: 265.948px 315.28px;" id="elu8y48nriurg" class="animable"></path><path d="M276.25,392.86a300.48,300.48,0,0,1-9.61-28.65,111.63,111.63,0,0,1-3.6-20.74c-.26-4.16-.31-9.28-.41-11.09-.31-6-2.89-18.61-7.54-32.46a214.83,214.83,0,0,1-7.69-32.15l.42,0a7.26,7.26,0,0,0,4.57-1.64c4.12-3.24,6.93-11.14,8.35-23.47l-.82-.1c-1.37,11.94-4.15,19.87-8,22.92a6.41,6.41,0,0,1-4.61,1.43c-1.71-11.77,1.32-20.21,4-27.66.69-1.91,1.33-3.72,1.9-5.55h-.87c-.54,1.73-1.15,3.45-1.8,5.27-2.74,7.61-5.85,16.24-4,28.39a205,205,0,0,0,7.81,32.79c4.43,13.19,7.2,26.39,7.5,32.24.09,1.76.15,6.89.41,11a103.24,103.24,0,0,0,3.67,20.81c2.07,7.83,6.09,20,9.62,29C275.74,393.09,276,393,276.25,392.86Z" style="fill: rgb(38, 50, 56); transform-origin: 261.116px 313.45px;" id="el1fl1la8dc98" class="animable"></path><path d="M321.32,398.66c-2.19-2.3-6.61-.79-9.46.37-6,2.44-7.84,4.11-12.29,5-6.46,1.23-6.26-2.47-6.26-2.47s-4.71-3.42-13.05,1.14c-5.93,3.24-5.88,7.45-5.88,7.45a28.48,28.48,0,0,1,2,9.86c.23,6,.77,8,1.54,9.68L304.82,412l1.92-.45C312.56,408.41,321.32,398.66,321.32,398.66Z" style="fill: rgb(55, 71, 79); transform-origin: 297.85px 413.575px;" id="elr1e3iwjrw7k" class="animable"></path><path d="M324.62,403.05a4.94,4.94,0,0,0-1.69-3.38c-.31-.22-1.4-.86-1.61-1-2.76-2-8.08,1.74-12.6,5.45-5.25,4.32-14.36,4.95-18.73,11s-9.54,8.14-11.35,10.79a4.52,4.52,0,0,0,.22,5.58c.24.29,1.15,1.23,1.34,1.42,1.27,1.35,3.61,2,6.43,1.58,5.69-.81,9.84-2.4,14.82-8.82s10.75-3.09,16.4-7.09A15.68,15.68,0,0,0,324.62,403.05Z" style="fill: rgb(38, 50, 56); transform-origin: 301.301px 416.364px;" id="el9heaqj7th28" class="animable"></path><path d="M324.62,403.05c-1.26-7.57-8.45-2.71-14.29,2.08-5.25,4.32-14.36,4.95-18.73,11s-9.67,8.06-11.35,10.79c-3.06,5,.69,8.37,6.38,7.56s9.84-2.4,14.82-8.82,10.75-3.09,16.4-7.09A15.68,15.68,0,0,0,324.62,403.05Z" id="el8apidhobcag" class="animable" style="transform-origin: 301.987px 416.859px;"></path><path d="M304.29,422l-12.69-5.92c-4.38,6-9.67,8.06-11.35,10.79a16.05,16.05,0,0,0-1.88,3.85l2,4.29.67.72,0,0h0c1.28,1.32,3.6,1.94,6.39,1.54,5.7-.81,9.84-2.4,14.83-8.82,1-1.32,2-2.51,2.83-3.6Z" style="fill: rgb(38, 50, 56); transform-origin: 291.73px 426.735px;" id="el6wkglhhk3c3" class="animable"></path><path d="M281,429.74c-3.05,5,.69,8.37,6.38,7.56s9.84-2.4,14.83-8.82c1-1.32,2-2.51,2.83-3.6L292.39,419C288,425,282.73,427,281,429.74Z" id="elixhz2rbtfx" class="animable" style="transform-origin: 292.475px 428.21px;"></path><path d="M267.4,388.11l4.16,11s5.24-6.44,19.68-5.46l-.68-12.08S276.31,378.62,267.4,388.11Z" style="fill: rgb(69, 90, 100); transform-origin: 279.32px 390.123px;" id="elr127ufi2q1g" class="animable"></path></g><g id="freepik--top--inject-55" class="animable" style="transform-origin: 281.693px 187.668px;"><path d="M268.44,128.77C260.5,128.37,257,135.62,258,144c.78,6.6-.3,9.51-4.08,13.44s-6.73,7.55-3.2,14,2.76,9,.87,12.59c14,11.28,36.12,10.51,52.22,4.23S318.15,173,318.15,173s-5.69,2.06-7.61-3c-2.42-6.34,8-6.58,5.77-15.92-1.3-5.55-6.34-6.79-5.61-11.72.35-2.39,4.46-8.57-.64-15.49-4.78-6.49-12.59-11.15-26.52-9.59C277.12,118,269.33,122.39,268.44,128.77Z" style="fill: rgb(55, 71, 79); transform-origin: 283.672px 154.886px;" id="el2wlbckoq9zj" class="animable"></path><path d="M318,194.22c7.34,10.39,8.65,12.47,8.65,12.47,5.16-10.05,9.1-17,10.53-21.45s9.69-13,9.69-13c4.38,2.35,6.26,10.57,2.07,17.5-3.05,5-3,19.1-10.64,35.86-4,8.77-9.6,9.7-18.13,1.73-6-5.59-16.26-17.68-16.26-17.68l-7.13-35.39C307.49,176.19,310.83,184.09,318,194.22Z" style="fill: rgb(255, 168, 167); transform-origin: 324.032px 202.511px;" id="eligmkdesl8e" class="animable"></path><path d="M360.16,176a18.37,18.37,0,0,1-3.56,6.23c-3.89,5.51-5.07,4.46-8.61,8.57l-1.87-14.3c-1.27-4.39.89-5.69,4.49-5.67Z" style="fill: rgb(242, 143, 143); transform-origin: 352.957px 180.815px;" id="elsjxp1aezuh" class="animable"></path><g id="freepik--Megaphone--inject-55" class="animable" style="transform-origin: 355.523px 153.093px;"><path d="M331.71,163.48a7.62,7.62,0,1,0,.46-10.76A7.62,7.62,0,0,0,331.71,163.48Z" style="fill: rgb(69, 90, 100); transform-origin: 337.326px 158.33px;" id="elgt7jwh85z9f" class="animable"></path><path d="M335.17,161.61l9.68-2.16a7.53,7.53,0,0,1-2.38,4.48,7.61,7.61,0,0,1-12.68-4.47C330.6,161.35,332.05,162.3,335.17,161.61Z" style="fill: rgb(55, 71, 79); transform-origin: 337.32px 162.696px;" id="el09v8z0843fkj" class="animable"></path><path d="M342,161.19l1.83-5.85A78.56,78.56,0,0,0,357.16,173l-.73,2.33C352.77,173.21,347,167.3,342,161.19Z" style="fill: rgb(55, 71, 79); transform-origin: 349.58px 165.335px;" id="elvorjen0mhtk" class="animable"></path><path d="M337.19,165.51l3.58.59,5.67,6.1a10.63,10.63,0,0,0,10,3.15h0c-4.2-2.69-9.86-8.64-14.45-14.16Z" style="fill: rgb(69, 90, 100); transform-origin: 346.815px 168.387px;" id="el8pnincutlsv" class="animable"></path><path d="M348.81,167.73l-.05.17a1,1,0,0,1-.67.61l-1.37.31c-.28.06-.35.29-.15.5l.12.13a1,1,0,0,0,.86.27l1.39-.31a1,1,0,0,0,.66-.61l0-.16a1,1,0,0,0-.2-.89l-.13-.13C349.13,167.4,348.9,167.46,348.81,167.73Z" style="fill: rgb(104, 200, 106); transform-origin: 348.044px 168.61px;" id="el6vsr761ok3v" class="animable"></path><path d="M350.8,169.61l-.05.17a1,1,0,0,1-.67.62l-1.37.3a.28.28,0,0,0-.16.5l.12.13a1,1,0,0,0,.87.27l1.39-.31a1,1,0,0,0,.66-.61l.05-.16a1,1,0,0,0-.21-.89l-.12-.13A.28.28,0,0,0,350.8,169.61Z" style="fill: rgb(104, 200, 106); transform-origin: 350.056px 170.495px;" id="el1t57tq0nmhw" class="animable"></path><path d="M352.79,171.5l-.06.17a1,1,0,0,1-.66.61l-1.37.3c-.28.07-.35.29-.16.5l.12.13a1,1,0,0,0,.86.28l1.4-.31a1,1,0,0,0,.65-.62l.05-.16a1,1,0,0,0-.2-.89l-.12-.13C353.1,171.17,352.87,171.22,352.79,171.5Z" style="fill: rgb(104, 200, 106); transform-origin: 352.042px 172.376px;" id="el1at9o3ioi4i" class="animable"></path><path d="M341.53,148.24h0a4.16,4.16,0,0,0-2.76,2.79l-.18.51c-.07.22-.13.43-.18.65a10.66,10.66,0,0,0-.19,1.13,12.25,12.25,0,0,0-.07,2.19,15,15,0,0,0,1.55,5.84,10.46,10.46,0,0,0,1.6,2.35c1.31,1.43,2.73,2,4,1.76l-4.32,1h0a4.93,4.93,0,0,1-4.56-1.62,10.47,10.47,0,0,1-1.55-2.24,15,15,0,0,1-1.6-6,12.11,12.11,0,0,1,.07-2.18,8.07,8.07,0,0,1,.19-1.13,6.16,6.16,0,0,1,.18-.65,4,4,0,0,1,.19-.52,4.91,4.91,0,0,1,3.25-2.89h0l.12,0,.15,0Z" style="fill: rgb(104, 200, 106); transform-origin: 339.275px 157.386px;" id="el930c1wrd0dc" class="animable"></path><g id="el5jmoowcrkmv"><path d="M341,166.42h0a4.93,4.93,0,0,1-4.56-1.62,10.47,10.47,0,0,1-1.55-2.24l4.85-1.2a10.46,10.46,0,0,0,1.6,2.35c1.31,1.43,2.73,2,4,1.76Z" style="opacity: 0.1; transform-origin: 340.115px 163.926px;" class="animable"></path></g><path d="M345.61,150a13.76,13.76,0,0,1,2.71,12.16c-.6,1.9-1.69,3-3,3.3l-.07,0c-1.25.23-2.67-.33-4-1.76a13.76,13.76,0,0,1-2.71-12.16c.59-1.89,1.67-3,2.94-3.3S344.26,148.51,345.61,150Z" style="fill: rgb(104, 200, 106); transform-origin: 343.43px 156.836px;" id="elguo8lr1fxja" class="animable"></path><g id="el3pw7z5p19wd"><path d="M345.61,150a13.76,13.76,0,0,1,2.71,12.16c-.6,1.9-1.69,3-3,3.3l-.07,0c-1.25.23-2.67-.33-4-1.76a13.76,13.76,0,0,1-2.71-12.16c.59-1.89,1.67-3,2.94-3.3S344.26,148.51,345.61,150Z" style="opacity: 0.2; transform-origin: 343.43px 156.836px;" class="animable"></path></g><path d="M359,136.31s-2.45,6.62-.11,17.1A42.31,42.31,0,0,0,360.5,159c2.48,6.69,5.73,9.89,5.73,9.89-4.48-2.11-9.41-4-14.73-4.08a59.55,59.55,0,0,0-6.22.29h0c-1.16.26-2.48-.29-3.69-1.61a10.8,10.8,0,0,1-1.95-3.17,13.69,13.69,0,0,1-.76-2.4,12.34,12.34,0,0,1,.09-6.2c.54-1.7,1.5-2.76,2.66-3h0a61.82,61.82,0,0,0,5.75-2.38C352.18,144,355.82,140.12,359,136.31Z" style="fill: rgb(104, 200, 106); transform-origin: 352.379px 152.6px;" id="el11zjt67bnlg" class="animable"></path><g id="el0xi6sowgwe9"><path d="M359,136.31s-2.45,6.62-.11,17.1A42.31,42.31,0,0,0,360.5,159c2.48,6.69,5.73,9.89,5.73,9.89-4.48-2.11-9.41-4-14.73-4.08a59.55,59.55,0,0,0-6.22.29h0c-1.16.26-2.48-.29-3.69-1.61a10.8,10.8,0,0,1-1.95-3.17,13.69,13.69,0,0,1-.76-2.4,12.34,12.34,0,0,1,.09-6.2c.54-1.7,1.5-2.76,2.66-3h0a61.82,61.82,0,0,0,5.75-2.38C352.18,144,355.82,140.12,359,136.31Z" style="fill: rgb(255, 255, 255); opacity: 0.6; transform-origin: 352.379px 152.6px;" class="animable"></path></g><g id="el0mfylz147jch"><path d="M360.5,159c2.48,6.69,5.73,9.89,5.73,9.89-4.48-2.11-9.41-4-14.73-4.08a59.55,59.55,0,0,0-6.22.29h0c-1.16.26-2.48-.29-3.69-1.61a10.8,10.8,0,0,1-1.95-3.17C344.76,158.8,353.41,156.82,360.5,159Z" style="opacity: 0.1; transform-origin: 352.935px 163.462px;" class="animable"></path></g><path d="M373.77,134.9A29.38,29.38,0,0,1,380,146.68h0c1.63,5.79,1.84,12.09.25,17.16-2.84,9-10.31,10.68-16.71,3.72a25.2,25.2,0,0,1-3.81-5.6A35.25,35.25,0,0,1,356,144.68c0-.81.11-1.61.22-2.39.05-.33.1-.65.16-1h0c.09-.45.18-.9.29-1.34s.23-.9.37-1.34C359.89,129.61,367.37,127.94,373.77,134.9Z" style="fill: rgb(104, 200, 106); transform-origin: 368.655px 151.228px;" id="eluoolil2av9e" class="animable"></path><g id="elxv5ziy5ry5e"><path d="M380,146.68c1.63,5.79,1.84,12.09.25,17.16-2.84,9-10.31,10.68-16.71,3.72a25.2,25.2,0,0,1-3.81-5.6h0c1.23.53,3.88.47,3.71-1a22.54,22.54,0,0,0,3.38,5,10.17,10.17,0,0,0,5.58,3.49,4.83,4.83,0,0,0,4.18-1.34,11.22,11.22,0,0,0,2.86-5c1.35-4.3,1.26-9.72,0-14.83C379.44,148.24,380.11,148.21,380,146.68Z" style="opacity: 0.1; transform-origin: 370.534px 159.268px;" class="animable"></path></g><path d="M373.38,136a28.13,28.13,0,0,1,6.06,12.26c1.23,5.11,1.32,10.53,0,14.83a11.22,11.22,0,0,1-2.86,5,4.83,4.83,0,0,1-4.18,1.34,10.17,10.17,0,0,1-5.58-3.49,22.54,22.54,0,0,1-3.38-5c-.37-.7-.71-1.44-1-2.19a33.12,33.12,0,0,1-1.4-4.11c-.08-.29-.15-.58-.22-.87-.12-.48-.23-1-.33-1.45a33.15,33.15,0,0,1-.63-5v0a31.94,31.94,0,0,1,0-3.25c.05-.76.14-1.51.25-2.23,0-.31.1-.61.16-.91s.15-.71.24-1.06.18-.67.28-1a11.22,11.22,0,0,1,2.86-5C366.26,131.4,369.91,132.21,373.38,136Z" style="fill: rgb(104, 200, 106); transform-origin: 370.108px 150.976px;" id="elzhf0sz3emad" class="animable"></path><g id="elamxjzxshcq"><path d="M373.38,136a28.13,28.13,0,0,1,6.06,12.26c1.23,5.11,1.32,10.53,0,14.83a11.22,11.22,0,0,1-2.86,5,4.83,4.83,0,0,1-4.18,1.34,10.17,10.17,0,0,1-5.58-3.49,22.54,22.54,0,0,1-3.38-5c-.37-.7-.71-1.44-1-2.19a33.12,33.12,0,0,1-1.4-4.11c-.08-.29-.15-.58-.22-.87-.12-.48-.23-1-.33-1.45a33.15,33.15,0,0,1-.63-5v0a31.94,31.94,0,0,1,0-3.25c.05-.76.14-1.51.25-2.23,0-.31.1-.61.16-.91s.15-.71.24-1.06.18-.67.28-1a11.22,11.22,0,0,1,2.86-5C366.26,131.4,369.91,132.21,373.38,136Z" style="opacity: 0.4; transform-origin: 370.108px 150.976px;" class="animable"></path></g><path d="M367.91,145.88l2.33,10c-2.32.61-5.17,1.33-7.53,3.59-.11-.24-.22-.49-.32-.74a33.12,33.12,0,0,1-1.4-4.11c-.08-.29-.15-.58-.22-.87-.12-.48-.23-1-.33-1.45a33.13,33.13,0,0,1-.62-5s0,0,0,0c0-.25,0-.49,0-.73C362.94,147.54,367.91,145.88,367.91,145.88Z" style="fill: rgb(55, 71, 79); transform-origin: 365.03px 152.675px;" id="elrom4gwu4ge9" class="animable"></path><path d="M370.85,155.52c-.81.74-1.9.53-2.91-.57l0,0a8.19,8.19,0,0,1-1.6-7.19v0a3.28,3.28,0,0,1,.81-1.39c.82-.74,1.9-.53,2.91.57l0,0a8.12,8.12,0,0,1,1.6,7.19v0a3.26,3.26,0,0,1-.81,1.4Z" style="fill: rgb(104, 200, 106); transform-origin: 369.003px 150.945px;" id="el200gkb304cw" class="animable"></path></g><path d="M350.67,165.71s1.63-.08,2.19-.07c1.34,0,2.4-.2,3.13,1,.25.4.29,1,.6,1.39s1.22.48,1.69.71a2.52,2.52,0,0,1,1.28,1.25c.16.4.07,1,.35,1.31s1,.47,1.45.78c.92.7.88,2.14,1,3.17s.51,2.68-.19,3.66a5,5,0,0,1-2.15,1.55,26.91,26.91,0,0,1-3,1.14,1.64,1.64,0,0,1-1.94-1.05c-.44-1-1.73-1-2.33-1.89-.26-.39-.24-.89-.49-1.29a2.66,2.66,0,0,1-.6-1.4,6.83,6.83,0,0,1,1.13-2.87,6,6,0,0,0,.36-2.66,4.14,4.14,0,0,0-.52-2.24Z" style="fill: rgb(255, 168, 167); transform-origin: 356.623px 173.638px;" id="elskgebnvnj4c" class="animable"></path><path d="M337.16,185.24c1.51-5.68,1.76-8.21,2.43-10.91.76-3.06,3.31-4.28,6.34-5.72a30,30,0,0,0,4.65-2.6c1.2-.82,1.25,2.64.76,3.81-.59,1.41-2.36,2.76-3.58,3.84-2.79,2.48,4.32,8.61.23,17.14C345.39,193.26,337.16,185.24,337.16,185.24Z" style="fill: rgb(255, 168, 167); transform-origin: 344.396px 178.577px;" id="elsca36kf2irp" class="animable"></path><g id="freepik--chest--inject-55" class="animable" style="transform-origin: 276.074px 215.87px;"><path d="M238.84,240.42c2.94-4.52,6.57-10.58,9.41-15.18s3.08-11.2,2.65-16.63c-.47-5.89-1.75-21.83-.35-27,.8-3,3.77-5.59,10-6.56a134.23,134.23,0,0,1,17.71-1.62c13.3-.3,18.52.88,18.52.88,4.72,4.57,16.88,21.23,16.52,30.67-.47,12.11-9.31,14.32-9.31,14.32s-4.13,6.87-5.09,10.93c-.66,2.82.65,6.23.92,15.94,0,0-6.73,15.45-33.09,11.56C245,254.51,238.84,240.42,238.84,240.42Z" style="fill: rgb(104, 200, 106); transform-origin: 276.074px 215.87px;" id="el5kj1qxn8k8t" class="animable"></path></g><g id="elf5n9ah12vrg"><path d="M289,221.18a20.27,20.27,0,0,1-7.15,2,18.1,18.1,0,0,1-7.18-.52,16.15,16.15,0,0,1-9.24-7.42c-.15-.23-.29.13-.25.26a12.57,12.57,0,0,0,3.62,5.56,15.17,15.17,0,0,0,6.3,3.48,16.46,16.46,0,0,0,7.77,0,15.42,15.42,0,0,0,6.19-3.18C289.14,221.37,289.14,221.1,289,221.18Z" style="opacity: 0.2; transform-origin: 277.144px 220.085px;" class="animable"></path></g><g id="freepik--head--inject-55" class="animable" style="transform-origin: 284.978px 162.258px;"><path d="M303.6,132.38c1.59,1.94,4.28,7,3.79,21.87-.36,10.76-3.75,12.85-7.54,14.41a19.13,19.13,0,0,1-8.42.68l-.94,5.39s2.63,10.45,1.24,18.79c-15.92-5.82-22.16-17.83-22.16-17.83l3.27-18.6c-.86,1.58-4.89,3.25-8-.34-3.51-4-2.73-9.18.16-11.09s6.51-.22,7.92,3.18c.73,3.16,4.14,2.91,4.52-1.25,4.36-2.09,4.72-7,3.16-12.17C286.63,129.35,300.49,130.79,303.6,132.38Z" style="fill: rgb(255, 168, 167); transform-origin: 284.978px 162.258px;" id="elp7dbbsvj6sq" class="animable"></path><path d="M294.55,143.49,296,155.72l6.6-2.88C300.22,149.15,296.92,144.33,294.55,143.49Z" style="fill: rgb(242, 143, 143); transform-origin: 298.575px 149.605px;" id="elfvwiaqdik6" class="animable"></path><path d="M291.43,169.34c-9.13-1.23-14.22-3.51-16.6-10.15,0,0,.29,4.94,3.4,7.76C282.2,170.57,291,172,291,172Z" style="fill: rgb(242, 143, 143); transform-origin: 283.13px 165.595px;" id="elq6xqta022t9" class="animable"></path><path d="M296.05,159.15l-5.66-1.92a2.83,2.83,0,0,0,1.75,3.75A3.15,3.15,0,0,0,296.05,159.15Z" style="fill: rgb(177, 102, 104); transform-origin: 293.117px 159.184px;" id="elnmp6d9nbwgb" class="animable"></path><path d="M293.42,161.12a3,3,0,0,1-1.28-.14,2.83,2.83,0,0,1-1.92-2.35A3.44,3.44,0,0,1,293.42,161.12Z" style="fill: rgb(242, 143, 143); transform-origin: 291.82px 159.884px;" id="el2dlkq3me9lf" class="animable"></path><path d="M286.82,146.22a2,2,0,1,0,2-1.9A2,2,0,0,0,286.82,146.22Z" style="fill: rgb(38, 50, 56); transform-origin: 288.818px 146.32px;" id="ellhbwf9za83t" class="animable"></path><path d="M300.15,145.58a2,2,0,1,0,1.73-2.19A2,2,0,0,0,300.15,145.58Z" style="fill: rgb(38, 50, 56); transform-origin: 302.139px 145.373px;" id="elvz0kctr7qbo" class="animable"></path><path d="M304.44,141.53l-4.69-1a2.31,2.31,0,0,1,2.77-1.87A2.49,2.49,0,0,1,304.44,141.53Z" style="fill: rgb(38, 50, 56); transform-origin: 302.114px 140.068px;" id="eluzk6z7pt1q" class="animable"></path><path d="M285.39,142.57l4.52-1.79a2.34,2.34,0,0,0-3.08-1.4A2.53,2.53,0,0,0,285.39,142.57Z" style="fill: rgb(38, 50, 56); transform-origin: 287.578px 140.891px;" id="elx6ckdouapso" class="animable"></path></g><path d="M247.8,179c-3.61,3.13-10.24,12.07-13.54,16.7l-6.6,9.25c-2.45-5.4-7.65-16.88-8.6-19.18-1.55-3.32-3.92-9.2-4.32-9.95-2.77-5.17-7.61-8.72-12.47-11.77l-2.51-1.55a10.65,10.65,0,0,1-1.2-.77c-.35-.28-.66-.51-1.13-.18a1.64,1.64,0,0,0-.59,1,4.8,4.8,0,0,0,1,3.75,24.31,24.31,0,0,0,2.78,2.87c.73.71-.42.9-1,.91-2.73,0-6.45-2.19-8.76-3.54a35.17,35.17,0,0,0-4.52-2.72,5.42,5.42,0,0,0-3.2-.35c-.73.17-1.33.58-1,1.45a3.64,3.64,0,0,0,1.07,1.34,4,4,0,0,1,1.61,2.85,9.38,9.38,0,0,0,.08,2.37c.27,1,1.08,1.7,1.46,2.64a22.68,22.68,0,0,1,.4,2.54,7.34,7.34,0,0,0,1.9,2.44,24.13,24.13,0,0,0,5,3.94,26.4,26.4,0,0,0,6.57,3.12c1.67.58,4.07.83,5.45,3.44s2,6.69,4.31,15.24c2,7.6,4.78,18.79,10.76,25.09,5.63,4.29,12-2.44,15.67-5.88,2.47-2.31,17.25-20.41,17.25-20.41,7.25-10.92,7.67-19.25,6.86-28.57C260.53,175,252.52,174.85,247.8,179Z" style="fill: rgb(255, 168, 167); transform-origin: 221.437px 196.351px;" id="elf7cncmfc4nd" class="animable"></path><path d="M202.19,173.47a17.66,17.66,0,0,0,5.84,7.84,7.32,7.32,0,0,1-4.45-2.45A6.85,6.85,0,0,1,202.19,173.47Z" style="fill: rgb(242, 143, 143); transform-origin: 205.063px 177.39px;" id="eli88ong81ezs" class="animable"></path><path d="M227.66,204.91a35.06,35.06,0,0,1,2.1,16.39c2.39-7.59,1.71-13.84-.39-18.78Z" style="fill: rgb(242, 143, 143); transform-origin: 229.466px 211.91px;" id="el37dpuoh3gud" class="animable"></path></g></g></g><defs>     <filter id="active" height="200%">         <feMorphology in="SourceAlpha" result="DILATED" operator="dilate" radius="2"></feMorphology>                <feFlood flood-color="#32DFEC" flood-opacity="1" result="PINK"></feFlood>        <feComposite in="PINK" in2="DILATED" operator="in" result="OUTLINE"></feComposite>        <feMerge>            <feMergeNode in="OUTLINE"></feMergeNode>            <feMergeNode in="SourceGraphic"></feMergeNode>        </feMerge>    </filter>    <filter id="hover" height="200%">        <feMorphology in="SourceAlpha" result="DILATED" operator="dilate" radius="2"></feMorphology>                <feFlood flood-color="#ff0000" flood-opacity="0.5" result="PINK"></feFlood>        <feComposite in="PINK" in2="DILATED" operator="in" result="OUTLINE"></feComposite>        <feMerge>            <feMergeNode in="OUTLINE"></feMergeNode>            <feMergeNode in="SourceGraphic"></feMergeNode>        </feMerge>            <feColorMatrix type="matrix" values="0   0   0   0   0                0   1   0   0   0                0   0   0   0   0                0   0   0   1   0 "></feColorMatrix>    </filter></defs></svg>